<svg width="150" height="201" viewBox="0 0 150 201" fill="none" xmlns="http://www.w3.org/2000/svg">
<circle cx="75" cy="75" r="74" stroke="#F561E7" stroke-width="2"/>
<path d="M8.6 195C8.07 195 7.805 194.735 7.805 194.205V176.46C7.805 175.93 8.07 175.665 8.6 175.665H16.43C17.9 175.665 19.01 176.04 19.76 176.79C20.52 177.53 20.9 178.62 20.9 180.06V180.87C20.9 182.44 20.395 183.55 19.385 184.2C21.135 184.92 22.01 186.48 22.01 188.88V189.825C22.01 191.525 21.57 192.815 20.69 193.695C19.82 194.565 18.53 195 16.82 195H8.6ZM9.38 193.425H16.82C18.09 193.425 19.01 193.14 19.58 192.57C20.15 192 20.435 191.085 20.435 189.825V188.88C20.435 187.62 20.15 186.71 19.58 186.15C19.02 185.59 18.1 185.31 16.82 185.31H9.38V193.425ZM9.38 183.735H16.655C17.565 183.735 18.235 183.505 18.665 183.045C19.105 182.575 19.325 181.85 19.325 180.87V180.06C19.325 179.06 19.095 178.34 18.635 177.9C18.185 177.46 17.45 177.24 16.43 177.24H9.38V183.735ZM31.4185 195C29.5485 195 28.1785 194.57 27.3085 193.71C26.4385 192.84 26.0035 191.475 26.0035 189.615V186.225C26.0035 184.335 26.4385 182.96 27.3085 182.1C28.1785 181.23 29.5485 180.805 31.4185 180.825H33.8785C35.7485 180.825 37.1135 181.26 37.9735 182.13C38.8435 182.99 39.2785 184.355 39.2785 186.225V189.585C39.2785 191.455 38.8435 192.825 37.9735 193.695C37.1135 194.565 35.7485 195 33.8785 195H31.4185ZM27.5785 189.615C27.5785 191.025 27.8585 192.015 28.4185 192.585C28.9885 193.145 29.9885 193.425 31.4185 193.425H33.8785C35.3085 193.425 36.3035 193.145 36.8635 192.585C37.4235 192.015 37.7035 191.015 37.7035 189.585V186.225C37.7035 184.795 37.4235 183.8 36.8635 183.24C36.3035 182.68 35.3085 182.4 33.8785 182.4H31.4185C30.4585 182.39 29.6985 182.505 29.1385 182.745C28.5785 182.985 28.1785 183.385 27.9385 183.945C27.6985 184.505 27.5785 185.265 27.5785 186.225V189.615ZM49.4947 195C47.6247 195 46.2547 194.57 45.3847 193.71C44.5147 192.84 44.0797 191.475 44.0797 189.615V186.225C44.0797 184.335 44.5147 182.96 45.3847 182.1C46.2547 181.23 47.6247 180.805 49.4947 180.825H51.9547C53.8247 180.825 55.1897 181.26 56.0497 182.13C56.9197 182.99 57.3547 184.355 57.3547 186.225V189.585C57.3547 191.455 56.9197 192.825 56.0497 193.695C55.1897 194.565 53.8247 195 51.9547 195H49.4947ZM45.6547 189.615C45.6547 191.025 45.9347 192.015 46.4947 192.585C47.0647 193.145 48.0647 193.425 49.4947 193.425H51.9547C53.3847 193.425 54.3797 193.145 54.9397 192.585C55.4997 192.015 55.7797 191.015 55.7797 189.585V186.225C55.7797 184.795 55.4997 183.8 54.9397 183.24C54.3797 182.68 53.3847 182.4 51.9547 182.4H49.4947C48.5347 182.39 47.7747 182.505 47.2147 182.745C46.6547 182.985 46.2547 183.385 46.0147 183.945C45.7747 184.505 45.6547 185.265 45.6547 186.225V189.615ZM67.7649 195C65.9249 195 64.5799 194.575 63.7299 193.725C62.8799 192.875 62.4549 191.535 62.4549 189.705V182.4H60.6699C60.1399 182.4 59.8749 182.135 59.8749 181.605C59.8749 181.085 60.1399 180.825 60.6699 180.825H62.4549V177.6C62.4549 177.07 62.7149 176.805 63.2349 176.805C63.7649 176.805 64.0299 177.07 64.0299 177.6V180.825H67.7949C68.3149 180.825 68.5749 181.085 68.5749 181.605C68.5749 182.135 68.3149 182.4 67.7949 182.4H64.0299V189.705C64.0299 191.105 64.2999 192.075 64.8399 192.615C65.3899 193.155 66.3649 193.425 67.7649 193.425C68.0549 193.425 68.2599 193.49 68.3799 193.62C68.5099 193.75 68.5749 193.945 68.5749 194.205C68.5749 194.735 68.3049 195 67.7649 195ZM75.8319 194.97C74.6019 194.97 73.6619 194.71 73.0119 194.19C72.3619 193.66 71.9719 192.855 71.8419 191.775C71.8119 191.515 71.8669 191.315 72.0069 191.175C72.1469 191.025 72.3519 190.95 72.6219 190.95C72.8719 190.95 73.0569 191.015 73.1769 191.145C73.3069 191.275 73.3919 191.47 73.4319 191.73C73.5219 192.35 73.7469 192.785 74.1069 193.035C74.4769 193.275 75.0519 193.395 75.8319 193.395H80.7519C81.6819 193.395 82.3219 193.22 82.6719 192.87C83.0219 192.52 83.1969 191.88 83.1969 190.95C83.1969 190.01 83.0219 189.365 82.6719 189.015C82.3219 188.665 81.6819 188.49 80.7519 188.49H75.8919C74.5919 188.49 73.6219 188.18 72.9819 187.56C72.3519 186.93 72.0369 185.965 72.0369 184.665C72.0369 183.335 72.3519 182.36 72.9819 181.74C73.6119 181.11 74.5819 180.795 75.8919 180.795H80.6019C82.8619 180.795 84.1169 181.795 84.3669 183.795C84.4069 184.055 84.3519 184.26 84.2019 184.41C84.0619 184.55 83.8619 184.62 83.6019 184.62C83.3519 184.62 83.1619 184.555 83.0319 184.425C82.9119 184.295 82.8269 184.105 82.7769 183.855C82.7069 183.295 82.5019 182.91 82.1619 182.7C81.8319 182.48 81.3119 182.37 80.6019 182.37H75.8919C75.0219 182.37 74.4219 182.53 74.0919 182.85C73.7719 183.17 73.6119 183.775 73.6119 184.665C73.6119 185.515 73.7769 186.105 74.1069 186.435C74.4369 186.755 75.0319 186.915 75.8919 186.915H80.7519C82.1319 186.915 83.1469 187.245 83.7969 187.905C84.4469 188.555 84.7719 189.57 84.7719 190.95C84.7719 192.32 84.4469 193.335 83.7969 193.995C83.1469 194.645 82.1319 194.97 80.7519 194.97H75.8319ZM95.2747 195C93.4347 195 92.0897 194.575 91.2397 193.725C90.3897 192.875 89.9647 191.535 89.9647 189.705V182.4H88.1797C87.6497 182.4 87.3847 182.135 87.3847 181.605C87.3847 181.085 87.6497 180.825 88.1797 180.825H89.9647V177.6C89.9647 177.07 90.2247 176.805 90.7447 176.805C91.2747 176.805 91.5397 177.07 91.5397 177.6V180.825H95.3047C95.8247 180.825 96.0847 181.085 96.0847 181.605C96.0847 182.135 95.8247 182.4 95.3047 182.4H91.5397V189.705C91.5397 191.105 91.8097 192.075 92.3497 192.615C92.8997 193.155 93.8747 193.425 95.2747 193.425C95.5647 193.425 95.7697 193.49 95.8897 193.62C96.0197 193.75 96.0847 193.945 96.0847 194.205C96.0847 194.735 95.8147 195 95.2747 195ZM101.032 195C100.502 195 100.237 194.735 100.237 194.205V181.605C100.237 181.085 100.502 180.825 101.032 180.825C101.552 180.825 101.812 181.085 101.812 181.605V183.915C102.332 182.915 103.082 182.15 104.062 181.62C105.052 181.09 106.222 180.825 107.572 180.825C108.102 180.825 108.367 181.085 108.367 181.605C108.367 182.135 108.102 182.4 107.572 182.4C105.792 182.4 104.412 182.805 103.432 183.615C102.452 184.415 101.912 185.56 101.812 187.05V194.205C101.812 194.735 101.552 195 101.032 195ZM114.852 195C113.292 195 112.147 194.64 111.417 193.92C110.697 193.19 110.337 192.045 110.337 190.485C110.337 188.925 110.702 187.78 111.432 187.05C112.162 186.32 113.302 185.955 114.852 185.955H121.677C121.657 184.635 121.357 183.715 120.777 183.195C120.207 182.665 119.232 182.4 117.852 182.4H116.112C114.842 182.4 113.912 182.535 113.322 182.805C112.732 183.075 112.367 183.535 112.227 184.185C112.157 184.435 112.062 184.62 111.942 184.74C111.832 184.85 111.652 184.905 111.402 184.905C111.142 184.905 110.937 184.835 110.787 184.695C110.647 184.545 110.597 184.345 110.637 184.095C110.767 182.955 111.282 182.125 112.182 181.605C113.092 181.085 114.402 180.825 116.112 180.825H117.852C119.722 180.825 121.087 181.26 121.947 182.13C122.817 182.99 123.252 184.355 123.252 186.225V194.205C123.252 194.735 122.992 195 122.472 195C121.942 195 121.677 194.735 121.677 194.205V192.72C120.717 194.24 119.002 195 116.532 195H114.852ZM114.852 193.425H116.532C117.502 193.425 118.352 193.32 119.082 193.11C119.822 192.89 120.417 192.54 120.867 192.06C121.317 191.58 121.587 190.94 121.677 190.14V187.53H114.852C113.742 187.53 112.972 187.745 112.542 188.175C112.122 188.595 111.912 189.365 111.912 190.485C111.912 191.595 112.122 192.365 112.542 192.795C112.972 193.215 113.742 193.425 114.852 193.425ZM129.391 201C128.861 201 128.596 200.735 128.596 200.205V181.605C128.596 181.085 128.861 180.825 129.391 180.825C129.911 180.825 130.171 181.085 130.171 181.605V182.94C130.621 182.24 131.266 181.715 132.106 181.365C132.946 181.005 134.021 180.825 135.331 180.825H136.471C138.341 180.825 139.706 181.26 140.566 182.13C141.436 182.99 141.871 184.355 141.871 186.225V189.585C141.871 191.455 141.436 192.825 140.566 193.695C139.706 194.565 138.341 195 136.471 195H130.171V200.205C130.171 200.735 129.911 201 129.391 201ZM130.171 193.425H136.471C137.901 193.425 138.896 193.145 139.456 192.585C140.016 192.015 140.296 191.015 140.296 189.585V186.225C140.296 184.795 140.016 183.8 139.456 183.24C138.896 182.68 137.901 182.4 136.471 182.4H135.331C133.731 182.4 132.501 182.65 131.641 183.15C130.791 183.65 130.301 184.42 130.171 185.46V193.425Z" fill="white"/>
<g clip-path="url(#clip0_26_403)">
<path d="M34 103.427C34 109.267 38.7337 114 44.5731 114H105.427C111.267 114 116 109.266 116 103.427V42.5731C116 36.7331 111.266 32 105.427 32H44.5731C38.7331 32 34 36.7337 34 42.5731V103.427Z" fill="#563D7C"/>
<path d="M68.0035 68.2716V56.6591H78.2253C79.1988 56.6591 80.1375 56.7403 81.0414 56.9025C81.9454 57.0648 82.7451 57.3545 83.4404 57.7717C84.1358 58.1889 84.6921 58.7684 85.1093 59.5101C85.5265 60.2518 85.7351 61.2021 85.7351 62.361C85.7351 64.4471 85.1093 65.9537 83.8576 66.8809C82.606 67.808 81.0067 68.2716 79.0597 68.2716H68.0035ZM57.0864 48.1758V97.8242H81.1458C83.3709 97.8242 85.5381 97.5461 87.6473 96.9898C89.7566 96.4335 91.634 95.5759 93.2797 94.417C94.9254 93.258 96.235 91.763 97.2085 89.9319C98.182 88.1008 98.6687 85.9336 98.6687 83.4303C98.6687 80.3244 97.9154 77.6705 96.4088 75.4685C94.9022 73.2665 92.6191 71.7252 89.5596 70.8444C91.7847 69.7782 93.4651 68.4107 94.6009 66.7418C95.7367 65.0729 96.3045 62.9869 96.3045 60.4836C96.3045 58.1657 95.9221 56.2187 95.1572 54.6426C94.3923 53.0664 93.3145 51.8032 91.9238 50.8529C90.5331 49.9026 88.8642 49.2188 86.9172 48.8016C84.9702 48.3844 82.8146 48.1758 80.4504 48.1758H57.0864ZM68.0035 89.3409V75.7119H79.8941C82.2583 75.7119 84.159 76.2566 85.596 77.346C87.0331 78.4354 87.7516 80.2549 87.7516 82.8045C87.7516 84.1025 87.5314 85.1687 87.091 86.0032C86.6507 86.8376 86.0596 87.4982 85.3179 87.9849C84.5762 88.4717 83.7186 88.8194 82.7451 89.028C81.7716 89.2366 80.7517 89.3409 79.6855 89.3409H68.0035Z" fill="white"/>
</g>
<defs>
<clipPath id="clip0_26_403">
<rect width="82" height="82" fill="white" transform="translate(34 32)"/>
</clipPath>
</defs>
</svg>
