<svg width="150" height="201" viewBox="0 0 150 201" fill="none" xmlns="http://www.w3.org/2000/svg">
<circle cx="75" cy="75" r="74.5" stroke="#F561E7"/>
<path d="M52.655 195C50.485 195 48.9 194.5 47.9 193.5C46.9 192.5 46.4 190.915 46.4 188.745V181.92C46.4 179.73 46.895 178.14 47.885 177.15C48.885 176.16 50.465 175.665 52.625 175.665H56.255C58.095 175.665 59.465 176.05 60.365 176.82C61.265 177.58 61.76 178.805 61.85 180.495C61.88 180.765 61.825 180.97 61.685 181.11C61.555 181.25 61.36 181.32 61.1 181.32C60.6 181.32 60.325 181.055 60.275 180.525C60.205 179.285 59.865 178.43 59.255 177.96C58.645 177.48 57.645 177.24 56.255 177.24H52.625C51.475 177.24 50.56 177.39 49.88 177.69C49.2 177.98 48.71 178.47 48.41 179.16C48.12 179.84 47.975 180.76 47.975 181.92V188.745C47.975 189.905 48.125 190.825 48.425 191.505C48.725 192.185 49.215 192.675 49.895 192.975C50.575 193.275 51.495 193.425 52.655 193.425H56.255C57.645 193.425 58.645 193.19 59.255 192.72C59.865 192.24 60.205 191.38 60.275 190.14C60.325 189.61 60.6 189.345 61.1 189.345C61.36 189.345 61.555 189.42 61.685 189.57C61.825 189.71 61.88 189.91 61.85 190.17C61.76 191.86 61.265 193.09 60.365 193.86C59.465 194.62 58.095 195 56.255 195H52.655ZM71.7212 194.97C69.9312 194.97 68.6012 194.575 67.7312 193.785C66.8712 192.985 66.4112 191.73 66.3512 190.02C66.3412 189.78 66.4062 189.59 66.5462 189.45C66.6962 189.3 66.8912 189.225 67.1312 189.225C67.3712 189.225 67.5612 189.295 67.7012 189.435C67.8412 189.575 67.9212 189.765 67.9412 190.005C67.9812 191.265 68.2812 192.145 68.8412 192.645C69.4012 193.145 70.3612 193.395 71.7212 193.395H76.0412C77.4612 193.395 78.4462 193.12 78.9962 192.57C79.5562 192.01 79.8362 191.03 79.8362 189.63C79.8362 188.21 79.5562 187.225 78.9962 186.675C78.4462 186.115 77.4612 185.835 76.0412 185.835H71.9312C70.1712 185.835 68.8812 185.425 68.0612 184.605C67.2412 183.785 66.8312 182.5 66.8312 180.75C66.8312 179 67.2362 177.715 68.0462 176.895C68.8662 176.075 70.1512 175.665 71.9012 175.665H76.1012C77.7812 175.665 79.0262 176.04 79.8362 176.79C80.6562 177.54 81.0962 178.72 81.1562 180.33C81.1762 180.57 81.1112 180.765 80.9612 180.915C80.8212 181.055 80.6262 181.125 80.3762 181.125C80.1462 181.125 79.9612 181.055 79.8212 180.915C79.6812 180.775 79.6012 180.585 79.5812 180.345C79.5412 179.195 79.2612 178.39 78.7412 177.93C78.2212 177.47 77.3412 177.24 76.1012 177.24H71.9012C70.5912 177.24 69.6812 177.5 69.1712 178.02C68.6612 178.53 68.4062 179.44 68.4062 180.75C68.4062 182.06 68.6612 182.975 69.1712 183.495C69.6912 184.005 70.6112 184.26 71.9312 184.26H76.0412C77.9012 184.26 79.2612 184.695 80.1212 185.565C80.9812 186.425 81.4112 187.78 81.4112 189.63C81.4112 191.48 80.9812 192.835 80.1212 193.695C79.2612 194.545 77.9012 194.97 76.0412 194.97H71.7212ZM91.5845 194.97C89.7945 194.97 88.4645 194.575 87.5945 193.785C86.7345 192.985 86.2745 191.73 86.2145 190.02C86.2045 189.78 86.2695 189.59 86.4095 189.45C86.5595 189.3 86.7545 189.225 86.9945 189.225C87.2345 189.225 87.4245 189.295 87.5645 189.435C87.7045 189.575 87.7845 189.765 87.8045 190.005C87.8445 191.265 88.1445 192.145 88.7045 192.645C89.2645 193.145 90.2245 193.395 91.5845 193.395H95.9045C97.3245 193.395 98.3095 193.12 98.8595 192.57C99.4195 192.01 99.6995 191.03 99.6995 189.63C99.6995 188.21 99.4195 187.225 98.8595 186.675C98.3095 186.115 97.3245 185.835 95.9045 185.835H91.7945C90.0345 185.835 88.7445 185.425 87.9245 184.605C87.1045 183.785 86.6945 182.5 86.6945 180.75C86.6945 179 87.0995 177.715 87.9095 176.895C88.7295 176.075 90.0145 175.665 91.7645 175.665H95.9645C97.6445 175.665 98.8895 176.04 99.6995 176.79C100.519 177.54 100.959 178.72 101.019 180.33C101.039 180.57 100.974 180.765 100.824 180.915C100.684 181.055 100.489 181.125 100.239 181.125C100.009 181.125 99.8245 181.055 99.6845 180.915C99.5445 180.775 99.4645 180.585 99.4445 180.345C99.4045 179.195 99.1245 178.39 98.6045 177.93C98.0845 177.47 97.2045 177.24 95.9645 177.24H91.7645C90.4545 177.24 89.5445 177.5 89.0345 178.02C88.5245 178.53 88.2695 179.44 88.2695 180.75C88.2695 182.06 88.5245 182.975 89.0345 183.495C89.5545 184.005 90.4745 184.26 91.7945 184.26H95.9045C97.7645 184.26 99.1245 184.695 99.9845 185.565C100.844 186.425 101.274 187.78 101.274 189.63C101.274 191.48 100.844 192.835 99.9845 193.695C99.1245 194.545 97.7645 194.97 95.9045 194.97H91.5845Z" fill="white"/>
<path d="M74.4568 124.868L45.5625 116.847L39.1235 44.6265H109.877L103.431 116.836L74.4568 124.868Z" fill="#264DE4"/>
<path d="M97.9124 112.238L103.421 50.5315H74.5V118.728L97.9124 112.238Z" fill="#2965F1"/>
<path d="M53.8848 77.3171L54.6786 86.1746H74.5001V77.3171H53.8848Z" fill="#EBEBEB"/>
<path d="M52.2896 59.3892L53.0947 68.2468H74.5001V59.3892H52.2896Z" fill="#EBEBEB"/>
<path d="M74.5002 100.321L74.4614 100.331L64.5967 97.6678L63.966 90.6035H55.0745L56.3154 104.511L74.4594 109.548L74.5002 109.537V100.321Z" fill="#EBEBEB"/>
<path d="M55.7749 25H66.5029V29.4863H60.2612V33.9725H66.5029V38.4588H55.7749V25Z" fill="white"/>
<path d="M68.6484 25H79.3765V28.9011H73.1347V29.6813H79.3765V38.6538H68.6484V34.5577H74.8902V33.7775H68.6484V25Z" fill="white"/>
<path d="M81.522 25H92.25V28.9011H86.0082V29.6813H92.25V38.6538H81.522V34.5577H87.7637V33.7775H81.522V25Z" fill="white"/>
<path d="M95.0587 77.317L96.6578 59.3892H74.4695V68.2468H86.9507L86.1447 77.317H74.4695V86.1745H85.3766L84.3484 97.6621L74.4695 100.328V109.544L92.6279 104.511L92.7611 103.015L94.8426 79.6955L95.0587 77.317Z" fill="white"/>
</svg>
