<svg width="150" height="201" viewBox="0 0 150 201" fill="none" xmlns="http://www.w3.org/2000/svg">
<circle cx="75" cy="75" r="74.5" stroke="#F561E7"/>
<path d="M62.655 195C60.485 195 58.9 194.5 57.9 193.5C56.9 192.5 56.4 190.915 56.4 188.745V181.92C56.4 179.73 56.895 178.14 57.885 177.15C58.885 176.16 60.465 175.665 62.625 175.665H66.255C68.095 175.665 69.465 176.05 70.365 176.82C71.265 177.58 71.76 178.805 71.85 180.495C71.88 180.765 71.825 180.97 71.685 181.11C71.555 181.25 71.36 181.32 71.1 181.32C70.6 181.32 70.325 181.055 70.275 180.525C70.205 179.285 69.865 178.43 69.255 177.96C68.645 177.48 67.645 177.24 66.255 177.24H62.625C61.475 177.24 60.56 177.39 59.88 177.69C59.2 177.98 58.71 178.47 58.41 179.16C58.12 179.84 57.975 180.76 57.975 181.92V188.745C57.975 189.905 58.125 190.825 58.425 191.505C58.725 192.185 59.215 192.675 59.895 192.975C60.575 193.275 61.495 193.425 62.655 193.425H66.255C67.275 193.425 68.08 193.3 68.67 193.05C69.27 192.8 69.695 192.38 69.945 191.79C70.195 191.2 70.32 190.385 70.32 189.345V187.47L67.035 187.44C66.515 187.44 66.255 187.175 66.255 186.645C66.255 186.125 66.515 185.865 67.035 185.865L71.115 185.895C71.635 185.895 71.895 186.155 71.895 186.675V189.345C71.895 191.325 71.45 192.765 70.56 193.665C69.67 194.555 68.235 195 66.255 195H62.655ZM77.2355 178.095C76.5455 178.095 76.2005 177.74 76.2005 177.03V176.355C76.2005 175.665 76.5455 175.32 77.2355 175.32H77.9105C78.5805 175.32 78.9155 175.665 78.9155 176.355V177.03C78.9155 177.74 78.5805 178.095 77.9105 178.095H77.2355ZM77.5805 195C77.0505 195 76.7855 194.735 76.7855 194.205V181.605C76.7855 181.085 77.0505 180.825 77.5805 180.825C78.1005 180.825 78.3605 181.085 78.3605 181.605V194.205C78.3605 194.735 78.1005 195 77.5805 195ZM89.7532 195C87.9132 195 86.5682 194.575 85.7182 193.725C84.8682 192.875 84.4432 191.535 84.4432 189.705V182.4H82.6582C82.1282 182.4 81.8632 182.135 81.8632 181.605C81.8632 181.085 82.1282 180.825 82.6582 180.825H84.4432V177.6C84.4432 177.07 84.7032 176.805 85.2232 176.805C85.7532 176.805 86.0182 177.07 86.0182 177.6V180.825H89.7832C90.3032 180.825 90.5632 181.085 90.5632 181.605C90.5632 182.135 90.3032 182.4 89.7832 182.4H86.0182V189.705C86.0182 191.105 86.2882 192.075 86.8282 192.615C87.3782 193.155 88.3532 193.425 89.7532 193.425C90.0432 193.425 90.2482 193.49 90.3682 193.62C90.4982 193.75 90.5632 193.945 90.5632 194.205C90.5632 194.735 90.2932 195 89.7532 195Z" fill="white"/>
<g clip-path="url(#clip0_26_399)">
<path d="M114.454 71.3464L78.6512 35.5466C76.5908 33.4845 73.2466 33.4845 71.1835 35.5466L63.7492 42.981L73.18 52.4118C75.3717 51.6713 77.8846 52.168 79.6319 53.9152C81.3872 55.6733 81.8803 58.2078 81.1218 60.4067L90.2107 69.4956C92.4097 68.7381 94.9469 69.2284 96.7031 70.9874C99.1575 73.4409 99.1575 77.4177 96.7031 79.873C94.2478 82.3283 90.271 82.3283 87.8148 79.873C85.9686 78.025 85.5124 75.3132 86.4472 73.0387L77.971 64.5625L77.9701 86.8683C78.5684 87.1652 79.1334 87.5602 79.6319 88.0568C82.0863 90.5103 82.0863 94.4871 79.6319 96.9442C77.1765 99.3986 73.198 99.3986 70.7463 96.9442C68.2918 94.4871 68.2918 90.5103 70.7463 88.0568C71.3527 87.4513 72.0545 86.9933 72.803 86.6856V64.172C72.0545 63.8661 71.3536 63.4109 70.7463 62.8008C68.8866 60.9438 68.4394 58.215 69.3922 55.9315L60.0963 46.6338L35.5475 71.1808C33.4845 73.2448 33.4845 76.589 35.5475 78.6512L71.35 114.452C73.4112 116.514 76.7546 116.514 78.8185 114.452L114.454 78.8176C116.516 76.7546 116.516 73.4085 114.454 71.3464Z" fill="#DE4C36"/>
</g>
<defs>
<clipPath id="clip0_26_399">
<rect width="82" height="82" fill="white" transform="translate(34 34)"/>
</clipPath>
</defs>
</svg>
