<svg width="150" height="201" viewBox="0 0 150 201" fill="none" xmlns="http://www.w3.org/2000/svg">
<circle cx="75" cy="75" r="74" stroke="#F561E7" stroke-width="2"/>
<path d="M35.6 195C35.36 195 35.165 194.93 35.015 194.79C34.875 194.64 34.805 194.445 34.805 194.205V176.46C34.805 176.22 34.875 176.03 35.015 175.89C35.165 175.74 35.36 175.665 35.6 175.665C35.84 175.665 36.03 175.74 36.17 175.89C36.31 176.03 36.38 176.22 36.38 176.46V184.41H48.965V176.46C48.965 176.22 49.035 176.03 49.175 175.89C49.315 175.74 49.505 175.665 49.745 175.665C49.985 175.665 50.175 175.74 50.315 175.89C50.465 176.03 50.54 176.22 50.54 176.46V194.205C50.54 194.445 50.465 194.64 50.315 194.79C50.175 194.93 49.985 195 49.745 195C49.505 195 49.315 194.93 49.175 194.79C49.035 194.64 48.965 194.445 48.965 194.205V185.985H36.38V194.205C36.38 194.445 36.31 194.64 36.17 194.79C36.03 194.93 35.84 195 35.6 195ZM61.8774 195.015C61.6374 195.015 61.4424 194.945 61.2924 194.805C61.1524 194.665 61.0824 194.475 61.0824 194.235V177.225H54.7074C54.4674 177.225 54.2724 177.155 54.1224 177.015C53.9824 176.875 53.9124 176.685 53.9124 176.445C53.9124 176.205 53.9824 176.015 54.1224 175.875C54.2724 175.725 54.4674 175.65 54.7074 175.65H69.0474C69.2874 175.65 69.4774 175.725 69.6174 175.875C69.7574 176.015 69.8274 176.205 69.8274 176.445C69.8274 176.685 69.7574 176.875 69.6174 177.015C69.4774 177.155 69.2874 177.225 69.0474 177.225H62.6574V194.235C62.6574 194.465 62.5824 194.655 62.4324 194.805C62.2924 194.945 62.1074 195.015 61.8774 195.015ZM73.9789 195C73.4489 195 73.1839 194.735 73.1839 194.205V176.46C73.1839 175.93 73.4489 175.665 73.9789 175.665C74.3589 175.665 74.6589 175.84 74.8789 176.19L82.3489 187.605L81.9889 187.65L89.4589 176.19C89.6689 175.84 89.9839 175.665 90.4039 175.665C90.8739 175.665 91.1089 175.93 91.1089 176.46V194.205C91.1089 194.735 90.8489 195 90.3289 195C89.7989 195 89.5339 194.735 89.5339 194.205V178.035L89.9989 178.185L83.0689 188.745C82.8489 189.085 82.5339 189.255 82.1239 189.255C81.7639 189.255 81.4739 189.085 81.2539 188.745L74.3239 178.185L74.7589 178.35V194.205C74.7589 194.735 74.4989 195 73.9789 195ZM97.5043 195C96.9743 195 96.7093 194.735 96.7093 194.205V176.46C96.7093 175.93 96.9743 175.665 97.5043 175.665C98.0243 175.665 98.2843 175.93 98.2843 176.46V193.425H107.404C107.934 193.425 108.199 193.685 108.199 194.205C108.199 194.735 107.934 195 107.404 195H97.5043Z" fill="white"/>
<path d="M109.877 42.6265L103.431 114.836L74.4568 122.868L45.5625 114.847L39.1235 42.6265H109.877Z" fill="#E44D26"/>
<path d="M74.5 116.728L97.9124 110.238L103.421 48.5315H74.5V116.728Z" fill="#F16529"/>
<path d="M61.9697 66.2468H74.5001V57.3892H52.2896L52.5016 59.7655L54.6786 84.1745H74.5001V75.3171H62.7792L61.9697 66.2468Z" fill="#EBEBEB"/>
<path d="M63.966 88.6035H55.0745L56.3154 102.511L74.4594 107.548L74.5002 107.537V98.3212L74.4614 98.3315L64.5967 95.6678L63.966 88.6035Z" fill="#EBEBEB"/>
<path d="M45.7065 23H50.2078V27.4473H54.3254V23H58.8269V36.4674H54.3256V31.9577H50.208V36.4674H45.7067V23H45.7065Z" fill="white"/>
<path d="M64.7462 27.466H60.7834V23H73.2124V27.466H69.2479V36.4674H64.7464V27.466H64.7462Z" fill="white"/>
<path d="M75.1848 23H79.8784L82.7656 27.732L85.6499 23H90.3453V36.4674H85.8625V29.7922L82.7656 34.5806H82.6882L79.5892 29.7922V36.4674H75.1848V23Z" fill="white"/>
<path d="M92.5854 23H97.0881V32.0158H103.418V36.4674H92.5854V23Z" fill="white"/>
<path d="M74.4695 84.1746H85.3766L84.3484 95.6621L74.4695 98.3285V107.544L92.6279 102.511L92.7611 101.015L94.8426 77.6956L95.0587 75.3171H74.4695V84.1746Z" fill="white"/>
<path d="M74.4695 66.2251V66.2468H95.8647L96.0424 64.2559L96.4459 59.7655L96.6578 57.3892H74.4695V66.2251Z" fill="white"/>
</svg>
