<svg width="150" height="201" viewBox="0 0 150 201" fill="none" xmlns="http://www.w3.org/2000/svg">
<circle cx="75" cy="75" r="74" stroke="#F561E7" stroke-width="2"/>
<path d="M27.6 195C27.07 195 26.805 194.735 26.805 194.205V176.46C26.805 175.93 27.07 175.665 27.6 175.665C28.12 175.665 28.38 175.93 28.38 176.46V193.425H37.5C38.03 193.425 38.295 193.685 38.295 194.205C38.295 194.735 38.03 195 37.5 195H27.6ZM45.4341 195C43.8741 195 42.7291 194.64 41.9991 193.92C41.2791 193.19 40.9191 192.045 40.9191 190.485C40.9191 188.925 41.2841 187.78 42.0141 187.05C42.7441 186.32 43.8841 185.955 45.4341 185.955H52.2591C52.2391 184.635 51.9391 183.715 51.3591 183.195C50.7891 182.665 49.8141 182.4 48.4341 182.4H46.6941C45.4241 182.4 44.4941 182.535 43.9041 182.805C43.3141 183.075 42.9491 183.535 42.8091 184.185C42.7391 184.435 42.6441 184.62 42.5241 184.74C42.4141 184.85 42.2341 184.905 41.9841 184.905C41.7241 184.905 41.5191 184.835 41.3691 184.695C41.2291 184.545 41.1791 184.345 41.2191 184.095C41.3491 182.955 41.8641 182.125 42.7641 181.605C43.6741 181.085 44.9841 180.825 46.6941 180.825H48.4341C50.3041 180.825 51.6691 181.26 52.5291 182.13C53.3991 182.99 53.8341 184.355 53.8341 186.225V194.205C53.8341 194.735 53.5741 195 53.0541 195C52.5241 195 52.2591 194.735 52.2591 194.205V192.72C51.2991 194.24 49.5841 195 47.1141 195H45.4341ZM45.4341 193.425H47.1141C48.0841 193.425 48.9341 193.32 49.6641 193.11C50.4041 192.89 50.9991 192.54 51.4491 192.06C51.8991 191.58 52.1691 190.94 52.2591 190.14V187.53H45.4341C44.3241 187.53 43.5541 187.745 43.1241 188.175C42.7041 188.595 42.4941 189.365 42.4941 190.485C42.4941 191.595 42.7041 192.365 43.1241 192.795C43.5541 193.215 44.3241 193.425 45.4341 193.425ZM59.973 195C59.443 195 59.178 194.735 59.178 194.205V181.605C59.178 181.085 59.443 180.825 59.973 180.825C60.493 180.825 60.753 181.085 60.753 181.605V183.915C61.273 182.915 62.023 182.15 63.003 181.62C63.993 181.09 65.163 180.825 66.513 180.825C67.043 180.825 67.308 181.085 67.308 181.605C67.308 182.135 67.043 182.4 66.513 182.4C64.733 182.4 63.353 182.805 62.373 183.615C61.393 184.415 60.853 185.56 60.753 187.05V194.205C60.753 194.735 60.493 195 59.973 195ZM73.7934 195C72.2334 195 71.0884 194.64 70.3584 193.92C69.6384 193.19 69.2784 192.045 69.2784 190.485C69.2784 188.925 69.6434 187.78 70.3734 187.05C71.1034 186.32 72.2434 185.955 73.7934 185.955H80.6184C80.5984 184.635 80.2984 183.715 79.7184 183.195C79.1484 182.665 78.1734 182.4 76.7934 182.4H75.0534C73.7834 182.4 72.8534 182.535 72.2634 182.805C71.6734 183.075 71.3084 183.535 71.1684 184.185C71.0984 184.435 71.0034 184.62 70.8834 184.74C70.7734 184.85 70.5934 184.905 70.3434 184.905C70.0834 184.905 69.8784 184.835 69.7284 184.695C69.5884 184.545 69.5384 184.345 69.5784 184.095C69.7084 182.955 70.2234 182.125 71.1234 181.605C72.0334 181.085 73.3434 180.825 75.0534 180.825H76.7934C78.6634 180.825 80.0284 181.26 80.8884 182.13C81.7584 182.99 82.1934 184.355 82.1934 186.225V194.205C82.1934 194.735 81.9334 195 81.4134 195C80.8834 195 80.6184 194.735 80.6184 194.205V192.72C79.6584 194.24 77.9434 195 75.4734 195H73.7934ZM73.7934 193.425H75.4734C76.4434 193.425 77.2934 193.32 78.0234 193.11C78.7634 192.89 79.3584 192.54 79.8084 192.06C80.2584 191.58 80.5284 190.94 80.6184 190.14V187.53H73.7934C72.6834 187.53 71.9134 187.745 71.4834 188.175C71.0634 188.595 70.8534 189.365 70.8534 190.485C70.8534 191.595 71.0634 192.365 71.4834 192.795C71.9134 193.215 72.6834 193.425 73.7934 193.425ZM92.6895 194.4C92.5795 194.64 92.4445 194.8 92.2845 194.88C92.1245 194.96 91.9395 195 91.7295 195C91.2895 195 90.9795 194.795 90.7995 194.385L85.2345 181.92C85.0245 181.43 85.1695 181.09 85.6695 180.9C86.1395 180.7 86.4795 180.84 86.6895 181.32L92.2395 193.74H91.2795L97.1895 181.305C97.2995 181.075 97.4445 180.925 97.6245 180.855C97.8045 180.785 98.0095 180.8 98.2395 180.9C98.7295 181.12 98.8645 181.47 98.6445 181.95L92.6895 194.4ZM102.858 188.52V189.615C102.858 191.025 103.138 192.015 103.698 192.585C104.268 193.145 105.268 193.425 106.698 193.425H109.158C110.418 193.425 111.333 193.265 111.903 192.945C112.483 192.615 112.828 192.05 112.938 191.25C112.978 191 113.058 190.81 113.178 190.68C113.308 190.55 113.503 190.485 113.763 190.485C114.023 190.485 114.218 190.56 114.348 190.71C114.488 190.85 114.543 191.05 114.513 191.31C114.383 192.57 113.878 193.5 112.998 194.1C112.118 194.7 110.838 195 109.158 195H106.698C104.828 195 103.458 194.57 102.588 193.71C101.718 192.84 101.283 191.475 101.283 189.615V186.225C101.283 184.335 101.718 182.96 102.588 182.1C103.458 181.23 104.828 180.805 106.698 180.825H109.158C111.028 180.825 112.393 181.26 113.253 182.13C114.123 182.99 114.558 184.355 114.558 186.225V187.725C114.558 188.255 114.298 188.52 113.778 188.52H102.858ZM106.698 182.4C105.268 182.38 104.268 182.655 103.698 183.225C103.138 183.785 102.858 184.785 102.858 186.225V186.945H112.983V186.225C112.983 184.795 112.703 183.8 112.143 183.24C111.583 182.68 110.588 182.4 109.158 182.4H106.698ZM123.889 195C122.469 195 121.424 194.67 120.754 194.01C120.094 193.35 119.764 192.315 119.764 190.905V174.975C119.764 174.455 120.029 174.195 120.559 174.195C121.079 174.195 121.339 174.455 121.339 174.975V190.905C121.339 191.875 121.519 192.54 121.879 192.9C122.239 193.25 122.904 193.425 123.874 193.425C124.414 193.425 124.684 193.685 124.684 194.205C124.694 194.735 124.429 195 123.889 195Z" fill="white"/>
<g clip-path="url(#clip0_26_371)">
<path d="M120.954 46.0971C120.984 46.2097 121 46.3257 121 46.4423V64.5618C121 65.0351 120.747 65.4723 120.336 65.7078L105.128 74.4637V91.8186C105.128 92.2909 104.877 92.7269 104.468 92.9647L72.7222 111.239C72.6495 111.281 72.5702 111.307 72.491 111.335C72.4612 111.345 72.4332 111.363 72.4018 111.371C72.1799 111.43 71.9466 111.43 71.7247 111.371C71.6884 111.362 71.6553 111.342 71.6207 111.329C71.548 111.302 71.472 111.279 71.4027 111.239L39.6639 92.9647C39.2535 92.7289 39 92.2919 39 91.8186V37.4602C39 37.3413 39.0165 37.2257 39.0462 37.1134C39.0561 37.0754 39.0793 37.0407 39.0925 37.0027C39.1173 36.9334 39.1404 36.8624 39.1767 36.798C39.2015 36.755 39.2378 36.7203 39.2675 36.6807C39.3055 36.6279 39.3402 36.5734 39.3848 36.5271C39.4228 36.4891 39.4723 36.4611 39.5152 36.428C39.5631 36.3884 39.6061 36.3455 39.6606 36.3141H39.6622L55.5324 27.1767C55.9414 26.9414 56.4446 26.9414 56.8536 27.1767L72.7238 36.3141H72.7271C72.78 36.3471 72.8245 36.3884 72.8724 36.4264C72.9154 36.4594 72.9633 36.4891 73.0012 36.5255C73.0475 36.5734 73.0805 36.6279 73.1202 36.6807C73.1482 36.7203 73.1862 36.755 73.2093 36.798C73.2473 36.864 73.2688 36.9334 73.2952 37.0027C73.3084 37.0407 73.3315 37.0754 73.3414 37.115C73.3718 37.2276 73.3874 37.3436 73.3877 37.4602V71.4119L86.6123 63.7971V46.4406C86.6123 46.325 86.6288 46.2078 86.6586 46.0971C86.6701 46.0575 86.6916 46.0228 86.7048 45.9848C86.7312 45.9155 86.7543 45.8445 86.7907 45.7801C86.8154 45.7371 86.8518 45.7025 86.8798 45.6628C86.9195 45.61 86.9525 45.5555 86.9988 45.5092C87.0367 45.4713 87.0846 45.4432 87.1276 45.4102C87.1771 45.3705 87.22 45.3276 87.2729 45.2962H87.2745L103.146 36.1589C103.555 35.9232 104.059 35.9232 104.468 36.1589L120.338 45.2962C120.394 45.3292 120.437 45.3705 120.486 45.4085C120.528 45.4415 120.576 45.4713 120.614 45.5076C120.66 45.5555 120.693 45.61 120.732 45.6628C120.762 45.7025 120.799 45.7371 120.822 45.7801C120.86 45.8445 120.881 45.9155 120.908 45.9848C120.922 46.0228 120.944 46.0575 120.954 46.0971ZM118.354 63.7971V48.7295L112.801 51.9267L105.128 56.3443V71.4119L118.356 63.7971H118.354ZM102.484 91.054V75.9764L94.9372 80.2867L73.386 92.5865V107.806L102.484 91.054ZM41.6456 39.7474V91.054L70.7404 107.804V92.5881L55.5407 83.9859L55.5357 83.9826L55.5291 83.9793C55.4779 83.9495 55.435 83.9066 55.3871 83.8703C55.3458 83.8372 55.2979 83.8108 55.2616 83.7745L55.2583 83.7695C55.2154 83.7282 55.1856 83.677 55.1493 83.6308C55.1163 83.5862 55.0767 83.5482 55.0502 83.502L55.0486 83.497C55.0189 83.4475 55.0007 83.388 54.9792 83.3319C54.9577 83.2823 54.9297 83.2361 54.9165 83.1833V83.1816C54.8999 83.1189 54.8966 83.0528 54.89 82.9884C54.8834 82.9389 54.8702 82.8893 54.8702 82.8398V82.8365V47.3621L47.1993 42.9429L41.6456 39.7491V39.7474ZM56.1947 29.8487L42.9717 37.4602L56.1914 45.0716L69.4127 37.4585L56.1914 29.8487H56.1947ZM63.0712 77.3504L70.7421 72.9345V39.7474L65.1883 42.9446L57.5158 47.3621V80.5492L63.0712 77.3504ZM103.807 38.8309L90.5857 46.4423L103.807 54.0537L117.027 46.4406L103.807 38.8309ZM102.484 56.3443L94.8117 51.9267L89.2579 48.7295V63.7971L96.9288 68.2131L102.484 71.4119V56.3443ZM72.0616 90.2993L91.4543 79.2281L101.148 73.6958L87.9368 66.0893L72.7255 74.8469L58.8617 82.8282L72.0616 90.2993Z" fill="#FF2D20"/>
</g>
<defs>
<clipPath id="clip0_26_371">
<rect width="82" height="84.5625" fill="white" transform="translate(39 27)"/>
</clipPath>
</defs>
</svg>
