<svg width="150" height="201" viewBox="0 0 150 201" fill="none" xmlns="http://www.w3.org/2000/svg">
<circle cx="75" cy="75" r="74" stroke="#F561E7" stroke-width="2"/>
<path d="M31.6 195C31.07 195 30.805 194.735 30.805 194.205V176.46C30.805 175.93 31.07 175.665 31.6 175.665C31.98 175.665 32.28 175.84 32.5 176.19L39.97 187.605L39.61 187.65L47.08 176.19C47.29 175.84 47.605 175.665 48.025 175.665C48.495 175.665 48.73 175.93 48.73 176.46V194.205C48.73 194.735 48.47 195 47.95 195C47.42 195 47.155 194.735 47.155 194.205V178.035L47.62 178.185L40.69 188.745C40.47 189.085 40.155 189.255 39.745 189.255C39.385 189.255 39.095 189.085 38.875 188.745L31.945 178.185L32.38 178.35V194.205C32.38 194.735 32.12 195 31.6 195ZM57.9004 201C56.5904 201 55.6204 200.685 54.9904 200.055C54.3704 199.425 54.0604 198.445 54.0604 197.115C54.0604 196.595 54.3204 196.335 54.8404 196.335C55.3704 196.335 55.6354 196.595 55.6354 197.115C55.6354 198.015 55.7954 198.625 56.1154 198.945C56.4354 199.265 57.0304 199.425 57.9004 199.425H63.0904C63.9704 199.425 64.5704 199.265 64.8904 198.945C65.2104 198.625 65.3704 198.015 65.3704 197.115V192.99C64.8004 193.74 64.0854 194.265 63.2254 194.565C62.3654 194.865 61.3604 195.015 60.2104 195.015H59.3704C57.5304 195.015 56.1854 194.59 55.3354 193.74C54.4854 192.89 54.0604 191.555 54.0604 189.735V181.59C54.0604 181.06 54.3204 180.795 54.8404 180.795C55.3704 180.795 55.6354 181.06 55.6354 181.59V189.735C55.6354 191.125 55.9054 192.09 56.4454 192.63C56.9954 193.17 57.9704 193.44 59.3704 193.44H60.2104C61.9604 193.44 63.2554 193.135 64.0954 192.525C64.9454 191.905 65.3704 190.975 65.3704 189.735V181.59C65.3704 181.06 65.6304 180.795 66.1504 180.795C66.6804 180.795 66.9454 181.06 66.9454 181.59V197.115C66.9454 198.445 66.6304 199.425 66.0004 200.055C65.3804 200.685 64.4104 201 63.0904 201H57.9004ZM77.518 194.97C75.728 194.97 74.398 194.575 73.528 193.785C72.668 192.985 72.208 191.73 72.148 190.02C72.138 189.78 72.203 189.59 72.343 189.45C72.493 189.3 72.688 189.225 72.928 189.225C73.168 189.225 73.358 189.295 73.498 189.435C73.638 189.575 73.718 189.765 73.738 190.005C73.778 191.265 74.078 192.145 74.638 192.645C75.198 193.145 76.158 193.395 77.518 193.395H81.838C83.258 193.395 84.243 193.12 84.793 192.57C85.353 192.01 85.633 191.03 85.633 189.63C85.633 188.21 85.353 187.225 84.793 186.675C84.243 186.115 83.258 185.835 81.838 185.835H77.728C75.968 185.835 74.678 185.425 73.858 184.605C73.038 183.785 72.628 182.5 72.628 180.75C72.628 179 73.033 177.715 73.843 176.895C74.663 176.075 75.948 175.665 77.698 175.665H81.898C83.578 175.665 84.823 176.04 85.633 176.79C86.453 177.54 86.893 178.72 86.953 180.33C86.973 180.57 86.908 180.765 86.758 180.915C86.618 181.055 86.423 181.125 86.173 181.125C85.943 181.125 85.758 181.055 85.618 180.915C85.478 180.775 85.398 180.585 85.378 180.345C85.338 179.195 85.058 178.39 84.538 177.93C84.018 177.47 83.138 177.24 81.898 177.24H77.698C76.388 177.24 75.478 177.5 74.968 178.02C74.458 178.53 74.203 179.44 74.203 180.75C74.203 182.06 74.458 182.975 74.968 183.495C75.488 184.005 76.408 184.26 77.728 184.26H81.838C83.698 184.26 85.058 184.695 85.918 185.565C86.778 186.425 87.208 187.78 87.208 189.63C87.208 191.48 86.778 192.835 85.918 193.695C85.058 194.545 83.698 194.97 81.838 194.97H77.518ZM107.896 195.12C108.056 195.29 108.136 195.46 108.136 195.63C108.136 195.81 108.046 195.985 107.866 196.155C107.516 196.495 107.166 196.495 106.816 196.155L102.811 192.015C102.641 191.845 102.556 191.675 102.556 191.505C102.556 191.325 102.641 191.15 102.811 190.98C103.161 190.64 103.516 190.64 103.876 190.98L107.896 195.12ZM98.2663 195C96.0963 195 94.5113 194.5 93.5113 193.5C92.5113 192.5 92.0113 190.915 92.0113 188.745V181.905C92.0113 179.715 92.5113 178.125 93.5113 177.135C94.5113 176.135 96.0863 175.645 98.2363 175.665H101.866C104.036 175.665 105.616 176.165 106.606 177.165C107.606 178.165 108.106 179.75 108.106 181.92V188.745C108.106 190.915 107.606 192.5 106.606 193.5C105.616 194.5 104.036 195 101.866 195H98.2663ZM98.2663 193.425H101.866C103.016 193.425 103.931 193.275 104.611 192.975C105.291 192.675 105.781 192.185 106.081 191.505C106.381 190.825 106.531 189.905 106.531 188.745V181.92C106.531 180.77 106.381 179.855 106.081 179.175C105.781 178.495 105.291 178.005 104.611 177.705C103.931 177.395 103.016 177.24 101.866 177.24H98.2363C97.0863 177.23 96.1713 177.375 95.4913 177.675C94.8213 177.965 94.3363 178.455 94.0363 179.145C93.7363 179.825 93.5863 180.745 93.5863 181.905V188.745C93.5863 189.905 93.7363 190.825 94.0363 191.505C94.3363 192.185 94.8263 192.675 95.5063 192.975C96.1863 193.275 97.1063 193.425 98.2663 193.425ZM114.159 195C113.629 195 113.364 194.735 113.364 194.205V176.46C113.364 175.93 113.629 175.665 114.159 175.665C114.679 175.665 114.939 175.93 114.939 176.46V193.425H124.059C124.589 193.425 124.854 193.685 124.854 194.205C124.854 194.735 124.589 195 124.059 195H114.159Z" fill="white"/>
<g clip-path="url(#clip0_26_391)">
<path d="M114.481 89.2084C110.023 89.0972 106.568 89.5433 103.67 90.7691C102.834 91.1033 101.496 91.1037 101.385 92.1623C101.831 92.6084 101.886 93.3328 102.276 93.9456C102.946 95.0599 104.115 96.5649 105.174 97.3453C106.345 98.2368 107.515 99.1283 108.741 99.9086C110.914 101.246 113.366 102.026 115.484 103.364C116.711 104.143 117.936 105.147 119.162 105.983C119.775 106.429 120.165 107.153 120.945 107.432V107.265C120.555 106.763 120.444 106.039 120.054 105.481C119.497 104.924 118.939 104.422 118.382 103.865C116.766 101.692 114.76 99.7971 112.586 98.2368C110.803 97.0107 106.902 95.3389 106.177 93.2768C106.177 93.2768 106.121 93.2212 106.066 93.1657C107.292 93.0541 108.741 92.6084 109.911 92.2738C111.806 91.7721 113.534 91.8836 115.484 91.3823C116.376 91.1592 117.267 90.8806 118.159 90.602V90.1006C117.156 89.0972 116.432 87.76 115.373 86.8125C112.531 84.36 109.41 81.9641 106.177 79.958C104.45 78.8435 102.221 78.1187 100.382 77.1716C99.7131 76.8367 98.5982 76.6699 98.2084 76.1127C97.205 74.8866 96.6477 73.2707 95.9233 71.8215C94.3078 68.7561 92.7468 65.3572 91.3536 62.125C90.3509 59.9515 89.7377 57.778 88.5116 55.7719C82.7717 46.2982 76.5301 40.5582 66.9448 34.9295C64.8828 33.7593 62.431 33.2576 59.8117 32.6448C58.4188 32.5888 57.0253 32.4777 55.632 32.4217C54.7405 32.0316 53.8487 30.9729 53.0683 30.4712C49.8925 28.4648 41.7 24.1184 39.3594 29.8584C37.8547 33.4807 41.5885 37.0471 42.8702 38.8864C43.818 40.1681 45.0437 41.6168 45.7125 43.066C46.1027 44.0127 46.2138 45.0165 46.604 46.0195C47.4959 48.471 48.3314 51.2021 49.5019 53.4872C50.1152 54.6574 50.7836 55.8835 51.564 56.9421C52.0097 57.5549 52.7897 57.8339 52.9572 58.837C52.1772 59.9515 52.1212 61.6234 51.6751 63.0166C49.6691 69.3138 50.4494 77.1157 53.2914 81.7411C54.1829 83.1339 56.3008 86.1996 59.1428 85.0292C61.6506 84.0261 61.0933 80.8495 61.8177 78.0631C61.9852 77.394 61.8736 76.9486 62.2079 76.5028C62.2082 76.5584 62.2079 76.6143 62.2079 76.6143C62.9882 78.1747 63.7682 79.6794 64.4926 81.2397C66.2204 83.9701 69.2295 86.8125 71.7372 88.7074C73.0752 89.7101 74.1338 91.4379 75.8056 92.0511V91.8836H75.6941C75.3595 91.3819 74.8582 91.1592 74.4124 90.7691C73.4094 89.766 72.2945 88.5399 71.5145 87.4254C69.1742 84.3044 67.1119 80.8495 65.2729 77.2828C64.3814 75.5554 63.6011 73.6605 62.8767 71.9331C62.5421 71.2639 62.5421 70.2612 61.9848 69.927C61.1489 71.1527 59.9232 72.2117 59.3099 73.7164C58.2517 76.1127 58.1398 79.0662 57.7496 82.1312C57.5269 82.1872 57.6381 82.1312 57.5266 82.2427C55.7436 81.7966 55.1303 79.958 54.4615 78.3974C52.7897 74.4408 52.511 68.0877 53.9602 63.5183C54.3503 62.3478 56.0222 58.6698 55.3534 57.5553C55.0192 56.4963 53.9042 55.8834 53.2914 55.0475C52.567 53.9885 51.7866 52.6513 51.2853 51.4808C49.9477 48.3602 49.2789 44.905 47.8301 41.784C47.1613 40.3348 45.9911 38.8304 45.0437 37.4932C43.9851 35.9885 42.8146 34.9295 41.9786 33.1461C41.7004 32.5332 41.3098 31.5302 41.7556 30.8614C41.8671 30.4156 42.0898 30.2485 42.5359 30.137C43.2603 29.5238 45.3223 30.3041 46.0467 30.6383C48.1087 31.4739 49.8361 32.2546 51.5639 33.4247C52.3439 33.982 53.1798 35.041 54.1829 35.3196H55.3534C57.1367 35.7095 59.1428 35.4312 60.8146 35.9325C63.7685 36.8796 66.443 38.2732 68.8396 39.7779C76.1402 44.4032 82.1584 50.9794 86.2269 58.837C86.8957 60.1183 87.174 61.2891 87.7872 62.6264C88.9577 65.3572 90.4065 68.1436 91.5766 70.8185C92.7468 73.4374 93.8613 76.1127 95.5332 78.2862C96.3694 79.456 99.7128 80.0692 101.217 80.6824C102.332 81.1838 104.06 81.6299 105.063 82.2428C106.957 83.4126 108.852 84.7505 110.636 86.0322C111.528 86.7007 114.314 88.0942 114.481 89.2084L114.481 89.2084Z" fill="#00546B"/>
<path d="M57.638 40.7805C56.6905 40.7805 56.0221 40.8924 55.3533 41.0595C55.3533 41.0592 55.3533 41.1155 55.3533 41.171H55.4648C55.9109 42.0625 56.6905 42.6758 57.2478 43.4557C57.6939 44.3473 58.0837 45.2391 58.5298 46.131C58.5854 46.075 58.641 46.0195 58.641 46.0195C59.4217 45.4618 59.8115 44.5703 59.8115 43.233C59.4769 42.8429 59.4213 42.4527 59.1427 42.0625C58.8085 41.5049 58.0837 41.2266 57.638 40.7805Z" fill="#00546B"/>
</g>
<defs>
<clipPath id="clip0_26_391">
<rect width="82" height="80.7188" fill="white" transform="translate(39 27)"/>
</clipPath>
</defs>
</svg>
