<svg width="164" height="201" viewBox="0 0 164 201" fill="none" xmlns="http://www.w3.org/2000/svg">
<circle cx="81" cy="75" r="74" stroke="#F561E7" stroke-width="2"/>
<g clip-path="url(#clip0_26_395)">
<path d="M124.866 84.0904C124.331 82.4706 122.93 81.3421 121.118 81.0712C120.264 80.9437 119.285 80.9981 118.127 81.2369C116.109 81.6533 114.611 81.8117 113.518 81.8426C117.643 74.8781 120.997 66.9359 122.928 59.4598C126.051 47.3715 124.382 41.8644 122.432 39.3733C117.273 32.7803 109.744 29.2381 100.662 29.1296C95.8171 29.0704 91.5636 30.027 89.345 30.7148C87.2791 30.3505 85.0577 30.147 82.7268 30.1093C78.3583 30.0396 74.4981 30.9919 71.1997 32.9492C69.3733 32.3319 66.4429 31.4614 63.0584 30.9058C55.0981 29.5989 48.6826 30.6173 43.99 33.9324C38.3077 37.9463 35.6733 44.9201 36.1606 54.6603C36.3151 57.7529 38.0452 67.1617 40.7689 76.0852C42.3344 81.214 44.0036 85.4733 45.7304 88.7455C48.1791 93.3856 50.7992 96.1182 53.7407 97.0993C55.3896 97.6488 58.3851 98.0333 61.536 95.4096C61.9353 95.893 62.4679 96.3737 63.1752 96.8199C64.0731 97.3863 65.1712 97.8491 66.2677 98.1233C70.2201 99.1114 73.922 98.8642 77.0803 97.4794C77.0997 98.0411 77.1147 98.5778 77.1275 99.0412C77.1485 99.793 77.1691 100.53 77.1967 101.219C77.3838 105.88 77.7009 109.504 78.6404 112.039C78.6919 112.179 78.7613 112.391 78.8347 112.617C79.3032 114.052 80.0872 116.454 82.0809 118.336C84.146 120.285 86.6435 120.883 88.9309 120.882C90.0781 120.882 91.1727 120.732 92.1326 120.526C95.5551 119.793 99.4417 118.675 102.253 114.672C104.911 110.888 106.203 105.188 106.437 96.2057C106.468 95.9519 106.496 95.7094 106.523 95.4782C106.541 95.3223 106.559 95.1628 106.578 95.0038L107.204 95.0588L107.366 95.0697C110.851 95.2285 115.113 94.4893 117.731 93.2735C119.799 92.3136 126.427 88.8147 124.866 84.0904Z" fill="black"/>
<path d="M118.907 85.0092C108.543 87.147 107.83 83.6381 107.83 83.6381C118.773 67.4011 123.347 46.7906 119.4 41.7463C108.63 27.9864 89.988 34.4939 89.6769 34.6629L89.5768 34.6808C87.5292 34.2558 85.2377 34.0025 82.6623 33.9605C77.9728 33.8837 74.4156 35.1899 71.7164 37.2368C71.7164 37.2368 38.4605 23.5367 40.0072 54.4674C40.3362 61.0476 49.4385 104.257 60.2954 91.2054C64.2636 86.4331 68.0976 82.398 68.0976 82.398C70.002 83.663 72.2818 84.3083 74.6717 84.0765L74.8574 83.9189C74.7997 84.5114 74.8261 85.091 74.9317 85.7771C72.1349 88.902 72.9567 89.4507 67.3656 90.6016C61.7082 91.7675 65.0317 93.8433 67.2016 94.3858C69.8322 95.0436 75.9182 95.9755 80.0304 90.219L79.8664 90.8758C80.9623 91.7535 81.7319 96.5852 81.6029 100.965C81.4739 105.345 81.3878 108.352 82.2513 110.701C83.1147 113.05 83.9753 118.334 91.3253 116.759C97.467 115.443 100.65 112.033 101.092 106.343C101.407 102.299 102.118 102.897 102.162 99.2807L102.733 97.5687C103.39 92.086 102.837 90.3172 106.621 91.1399L107.541 91.2207C110.325 91.3474 113.97 90.7728 116.11 89.7785C120.716 87.6407 123.448 84.0714 118.906 85.0092H118.907Z" fill="#336791"/>
<path d="M73.6631 57.4101C72.7294 57.2801 71.8834 57.4004 71.4555 57.7243C71.2146 57.9067 71.1402 58.1179 71.1202 58.2633C71.0665 58.6484 71.3364 59.074 71.502 59.2937C71.971 59.9153 72.6562 60.3426 73.3345 60.4368C73.4328 60.4503 73.5304 60.4569 73.6277 60.4569C74.7588 60.4569 75.7869 59.5764 75.8775 58.9263C75.9909 58.1123 74.8091 57.5696 73.6631 57.4101Z" fill="white"/>
<path d="M104.603 57.4359H104.603C104.514 56.7978 103.378 56.6159 102.3 56.7657C101.224 56.9157 100.181 57.4013 100.268 58.0408C100.338 58.5382 101.236 59.3872 102.299 59.387C102.389 59.387 102.479 59.3811 102.57 59.3683C103.28 59.27 103.801 58.8194 104.048 58.5596C104.425 58.164 104.643 57.7227 104.603 57.4359Z" fill="white"/>
<path d="M122.355 84.7664C121.96 83.5714 120.688 83.1867 118.575 83.6233C112.3 84.9182 110.053 84.0212 109.315 83.4779C114.193 76.0479 118.205 67.0672 120.369 58.6876C121.395 54.7184 121.961 51.0323 122.007 48.0279C122.058 44.7297 121.497 42.3066 120.338 40.8262C115.668 34.8583 108.813 31.6572 100.516 31.5692C94.8114 31.5051 89.9919 32.9651 89.0575 33.3755C87.0899 32.8861 84.9449 32.5857 82.61 32.5474C78.3276 32.4782 74.6262 33.5034 71.5615 35.593C70.2303 35.0977 66.79 33.9167 62.583 33.2391C55.3092 32.0678 49.5294 32.9552 45.4046 35.8773C40.4829 39.3642 38.2108 45.5971 38.651 54.4025C38.7992 57.3653 40.487 66.4787 43.151 75.2067C46.6575 86.694 50.4689 93.1972 54.4795 94.5348C54.9488 94.6914 55.4903 94.801 56.087 94.801C57.55 94.801 59.3435 94.1415 61.2098 91.898C64.3095 88.1688 67.2037 85.0439 68.2705 83.9085C69.8471 84.7549 71.5788 85.2273 73.3504 85.2747C73.3535 85.321 73.3583 85.3674 73.3624 85.4135C73.007 85.8351 72.7155 86.2045 72.467 86.5199C71.2396 88.0779 70.9842 88.4022 67.0333 89.2159C65.9096 89.4477 62.9244 90.0629 62.8809 92.1551C62.8333 94.4411 66.409 95.4012 66.8165 95.503C68.2363 95.8584 69.6039 96.0337 70.9083 96.0337C74.0808 96.0335 76.8724 94.991 79.1035 92.9737C79.0347 101.123 79.3746 109.154 80.3531 111.601C81.1543 113.604 83.1123 118.499 89.2967 118.498C90.2039 118.498 91.203 118.393 92.3017 118.157C98.7559 116.774 101.559 113.921 102.643 107.632C103.223 104.271 104.219 96.2449 104.687 91.9398C105.675 92.2481 106.948 92.3892 108.323 92.389C111.192 92.389 114.502 91.7795 116.578 90.8159C118.91 89.733 123.118 87.0752 122.355 84.7664ZM106.985 55.6746C106.964 56.9456 106.789 58.0994 106.603 59.3039C106.404 60.5992 106.197 61.9384 106.145 63.5642C106.094 65.1463 106.292 66.7913 106.483 68.3819C106.869 71.5947 107.265 74.9026 105.731 78.1665C105.493 77.7432 105.263 77.2812 105.052 76.7696C104.861 76.3075 104.447 75.5652 103.874 74.5377C101.644 70.5386 96.4222 61.1736 99.0955 57.3521C99.8916 56.2144 101.912 55.0452 106.985 55.6746ZM100.836 34.1429C108.271 34.3072 114.152 37.0884 118.316 42.409C121.509 46.4901 117.993 65.0598 107.812 81.0798C107.712 80.9521 107.609 80.8231 107.503 80.6909C107.461 80.6379 107.418 80.5841 107.375 80.5297C110.005 76.1851 109.491 71.8867 109.033 68.0755C108.845 66.5115 108.667 65.0342 108.712 63.6468C108.759 62.1757 108.954 60.9146 109.142 59.6949C109.373 58.1917 109.608 56.6366 109.543 54.8031C109.592 54.6108 109.611 54.3836 109.586 54.1139C109.42 52.3556 107.413 47.0942 103.322 42.3313C101.084 39.7266 97.8201 36.8115 93.364 34.8453C95.2808 34.4481 97.9019 34.0776 100.836 34.1429ZM59.2349 90.2559C57.1789 92.7279 55.759 92.2542 55.2921 92.0987C52.2496 91.0838 48.7197 84.6537 45.6073 74.4569C42.9143 65.634 41.3404 56.762 41.2159 54.2742C40.8226 46.4062 42.7299 40.9227 46.8849 37.976C53.6469 33.1806 64.7644 36.0508 69.2316 37.5066C69.1674 37.5699 69.1006 37.6292 69.0369 37.6935C61.7065 45.0969 61.8804 57.7456 61.8983 58.5187C61.8977 58.817 61.9226 59.2394 61.957 59.8204C62.0831 61.9477 62.3178 65.9072 61.6908 70.3913C61.108 74.5581 62.3924 78.6365 65.2142 81.5807C65.5064 81.8854 65.8113 82.1716 66.1263 82.4409C64.8701 83.7861 62.1404 86.7606 59.2349 90.2559ZM67.0685 79.8037C64.7941 77.4308 63.7613 74.13 64.2343 70.7469C64.8965 66.01 64.652 61.8846 64.5207 59.6683C64.5024 59.3582 64.4861 59.0865 64.4764 58.872C65.5474 57.9226 70.5101 55.2633 74.0491 56.0743C75.6644 56.4443 76.6482 57.5439 77.0574 59.4357C79.175 69.2291 77.3378 73.311 75.8616 76.591C75.5573 77.2668 75.2698 77.9055 75.0243 78.5665L74.8341 79.0772C74.3524 80.3688 73.9043 81.5696 73.6265 82.71C71.2089 82.7026 68.8569 81.6699 67.0685 79.8037ZM67.4396 93.0114C66.7337 92.835 66.0987 92.5287 65.7262 92.2746C66.0373 92.1281 66.5911 91.9291 67.5514 91.7313C72.1993 90.7743 72.917 90.0991 74.4844 88.1089C74.844 87.6527 75.2513 87.1354 75.8154 86.5053C75.8156 86.5049 75.8158 86.5047 75.816 86.5045C76.6564 85.5637 77.0407 85.7232 77.7377 86.0123C78.3026 86.2461 78.8527 86.954 79.0759 87.7333C79.1814 88.1012 79.3 88.7999 78.9121 89.3432C75.6376 93.9278 70.8663 93.8689 67.4396 93.0114ZM91.7634 115.646C86.0775 116.865 84.0643 113.963 82.7377 110.647C81.8814 108.506 81.4607 98.8504 81.7593 88.188C81.7632 88.046 81.743 87.909 81.7038 87.7802C81.6698 87.5316 81.6175 87.28 81.545 87.0268C81.1008 85.4753 80.0189 84.1776 78.7209 83.6396C78.2052 83.4259 77.2585 83.0339 76.121 83.3248C76.3637 82.3253 76.7844 81.1969 77.2403 79.9747L77.4317 79.4604C77.6473 78.8809 77.9174 78.2805 78.2033 77.6451C79.7482 74.213 81.8639 69.5124 79.5677 58.8928C78.7075 54.9154 75.8354 52.9731 71.4813 53.4241C68.8709 53.6942 66.483 54.7474 65.2919 55.3513C65.0358 55.4811 64.8015 55.6064 64.5827 55.7286C64.9151 51.7208 66.1712 44.2313 70.8696 39.4928C73.8276 36.5094 77.7674 35.0361 82.5675 35.1154C92.0254 35.2704 98.0904 40.1241 101.513 44.1687C104.463 47.6542 106.06 51.1649 106.697 53.0584C101.904 52.5711 98.6438 53.5174 96.991 55.88C93.3958 61.0193 98.958 70.9946 101.631 75.7885C102.121 76.6672 102.545 77.4265 102.678 77.7491C103.548 79.8589 104.675 81.2673 105.498 82.2957C105.75 82.6107 105.995 82.9162 106.181 83.183C104.729 83.6017 102.122 84.5686 102.359 89.4023C102.168 91.8279 100.804 103.184 100.112 107.196C99.1983 112.496 97.2478 114.471 91.7634 115.646ZM115.497 88.4865C114.012 89.1757 111.528 89.6926 109.168 89.8035C106.561 89.9257 105.234 89.5115 104.922 89.2569C104.775 86.2447 105.897 85.9299 107.083 85.5967C107.27 85.5442 107.452 85.4933 107.627 85.4319C107.736 85.5207 107.856 85.6089 107.987 85.6952C110.082 87.0781 113.819 87.2272 119.094 86.1384C119.114 86.1342 119.133 86.1305 119.152 86.1266C118.441 86.7919 117.223 87.6848 115.497 88.4865Z" fill="white"/>
</g>
<path d="M3.6 195C3.07 195 2.805 194.735 2.805 194.205V176.46C2.805 175.93 3.07 175.665 3.6 175.665H10.62C12.33 175.665 13.62 176.105 14.49 176.985C15.37 177.865 15.81 179.16 15.81 180.87V181.77C15.81 183.47 15.37 184.76 14.49 185.64C13.62 186.52 12.33 186.96 10.62 186.96H4.38V194.205C4.38 194.735 4.12 195 3.6 195ZM4.38 185.385H10.62C11.88 185.385 12.795 185.1 13.365 184.53C13.945 183.95 14.235 183.03 14.235 181.77V180.87C14.235 179.6 13.945 178.68 13.365 178.11C12.795 177.53 11.88 177.24 10.62 177.24H4.38V185.385ZM24.0455 195C22.1755 195 20.8055 194.57 19.9355 193.71C19.0655 192.84 18.6305 191.475 18.6305 189.615V186.225C18.6305 184.335 19.0655 182.96 19.9355 182.1C20.8055 181.23 22.1755 180.805 24.0455 180.825H26.5055C28.3755 180.825 29.7405 181.26 30.6005 182.13C31.4705 182.99 31.9055 184.355 31.9055 186.225V189.585C31.9055 191.455 31.4705 192.825 30.6005 193.695C29.7405 194.565 28.3755 195 26.5055 195H24.0455ZM20.2055 189.615C20.2055 191.025 20.4855 192.015 21.0455 192.585C21.6155 193.145 22.6155 193.425 24.0455 193.425H26.5055C27.9355 193.425 28.9305 193.145 29.4905 192.585C30.0505 192.015 30.3305 191.015 30.3305 189.585V186.225C30.3305 184.795 30.0505 183.8 29.4905 183.24C28.9305 182.68 27.9355 182.4 26.5055 182.4H24.0455C23.0855 182.39 22.3255 182.505 21.7655 182.745C21.2055 182.985 20.8055 183.385 20.5655 183.945C20.3255 184.505 20.2055 185.265 20.2055 186.225V189.615ZM40.2166 194.97C38.9866 194.97 38.0466 194.71 37.3966 194.19C36.7466 193.66 36.3566 192.855 36.2266 191.775C36.1966 191.515 36.2516 191.315 36.3916 191.175C36.5316 191.025 36.7366 190.95 37.0066 190.95C37.2566 190.95 37.4416 191.015 37.5616 191.145C37.6916 191.275 37.7766 191.47 37.8166 191.73C37.9066 192.35 38.1316 192.785 38.4916 193.035C38.8616 193.275 39.4366 193.395 40.2166 193.395H45.1366C46.0666 193.395 46.7066 193.22 47.0566 192.87C47.4066 192.52 47.5816 191.88 47.5816 190.95C47.5816 190.01 47.4066 189.365 47.0566 189.015C46.7066 188.665 46.0666 188.49 45.1366 188.49H40.2766C38.9766 188.49 38.0066 188.18 37.3666 187.56C36.7366 186.93 36.4216 185.965 36.4216 184.665C36.4216 183.335 36.7366 182.36 37.3666 181.74C37.9966 181.11 38.9666 180.795 40.2766 180.795H44.9866C47.2466 180.795 48.5016 181.795 48.7516 183.795C48.7916 184.055 48.7366 184.26 48.5866 184.41C48.4466 184.55 48.2466 184.62 47.9866 184.62C47.7366 184.62 47.5466 184.555 47.4166 184.425C47.2966 184.295 47.2116 184.105 47.1616 183.855C47.0916 183.295 46.8866 182.91 46.5466 182.7C46.2166 182.48 45.6966 182.37 44.9866 182.37H40.2766C39.4066 182.37 38.8066 182.53 38.4766 182.85C38.1566 183.17 37.9966 183.775 37.9966 184.665C37.9966 185.515 38.1616 186.105 38.4916 186.435C38.8216 186.755 39.4166 186.915 40.2766 186.915H45.1366C46.5166 186.915 47.5316 187.245 48.1816 187.905C48.8316 188.555 49.1566 189.57 49.1566 190.95C49.1566 192.32 48.8316 193.335 48.1816 193.995C47.5316 194.645 46.5166 194.97 45.1366 194.97H40.2166ZM59.6595 195C57.8195 195 56.4745 194.575 55.6245 193.725C54.7745 192.875 54.3495 191.535 54.3495 189.705V182.4H52.5645C52.0345 182.4 51.7695 182.135 51.7695 181.605C51.7695 181.085 52.0345 180.825 52.5645 180.825H54.3495V177.6C54.3495 177.07 54.6095 176.805 55.1295 176.805C55.6595 176.805 55.9245 177.07 55.9245 177.6V180.825H59.6895C60.2095 180.825 60.4695 181.085 60.4695 181.605C60.4695 182.135 60.2095 182.4 59.6895 182.4H55.9245V189.705C55.9245 191.105 56.1945 192.075 56.7345 192.615C57.2845 193.155 58.2595 193.425 59.6595 193.425C59.9495 193.425 60.1545 193.49 60.2745 193.62C60.4045 193.75 60.4695 193.945 60.4695 194.205C60.4695 194.735 60.1995 195 59.6595 195ZM66.8702 201C65.6902 201 64.7902 200.755 64.1702 200.265C63.5502 199.785 63.1852 199.025 63.0752 197.985C63.0452 197.725 63.1002 197.52 63.2402 197.37C63.3802 197.22 63.5752 197.145 63.8252 197.145C64.0752 197.145 64.2652 197.21 64.3952 197.34C64.5252 197.47 64.6102 197.665 64.6502 197.925C64.7202 198.505 64.9252 198.9 65.2652 199.11C65.6052 199.32 66.1402 199.425 66.8702 199.425H72.4502C73.3302 199.425 73.9252 199.265 74.2352 198.945C74.5552 198.625 74.7152 198.025 74.7152 197.145V192.855C74.2552 193.555 73.6052 194.09 72.7652 194.46C71.9252 194.82 70.8602 195 69.5702 195H68.4302C66.5602 195 65.1902 194.57 64.3202 193.71C63.4502 192.84 63.0152 191.475 63.0152 189.615V186.225C63.0152 184.335 63.4452 182.965 64.3052 182.115C65.1752 181.255 66.5502 180.825 68.4302 180.825H70.8902C71.8702 180.825 72.6652 180.955 73.2752 181.215C73.8852 181.475 74.3652 181.88 74.7152 182.43V181.605C74.7152 181.085 74.9802 180.825 75.5102 180.825C76.0302 180.825 76.2902 181.085 76.2902 181.605V197.145C76.2902 198.465 75.9802 199.435 75.3602 200.055C74.7402 200.685 73.7702 201 72.4502 201H66.8702ZM68.4302 193.425H69.5702C71.1302 193.425 72.3752 193.18 73.3052 192.69C74.2452 192.2 74.7152 191.455 74.7152 190.455V185.445C74.7152 184.315 74.4002 183.525 73.7702 183.075C73.1402 182.625 72.1802 182.4 70.8902 182.4H68.4302C67.0002 182.4 66.0002 182.68 65.4302 183.24C64.8702 183.79 64.5902 184.785 64.5902 186.225V189.615C64.5902 191.025 64.8702 192.015 65.4302 192.585C66.0002 193.145 67.0002 193.425 68.4302 193.425ZM82.4379 195C81.9079 195 81.6429 194.735 81.6429 194.205V181.605C81.6429 181.085 81.9079 180.825 82.4379 180.825C82.9579 180.825 83.2179 181.085 83.2179 181.605V183.915C83.7379 182.915 84.4879 182.15 85.4679 181.62C86.4579 181.09 87.6279 180.825 88.9779 180.825C89.5079 180.825 89.7729 181.085 89.7729 181.605C89.7729 182.135 89.5079 182.4 88.9779 182.4C87.1979 182.4 85.8179 182.805 84.8379 183.615C83.8579 184.415 83.3179 185.56 83.2179 187.05V194.205C83.2179 194.735 82.9579 195 82.4379 195ZM93.5355 188.52V189.615C93.5355 191.025 93.8155 192.015 94.3755 192.585C94.9455 193.145 95.9455 193.425 97.3755 193.425H99.8355C101.096 193.425 102.011 193.265 102.581 192.945C103.161 192.615 103.506 192.05 103.616 191.25C103.656 191 103.736 190.81 103.856 190.68C103.986 190.55 104.181 190.485 104.441 190.485C104.701 190.485 104.896 190.56 105.026 190.71C105.166 190.85 105.221 191.05 105.191 191.31C105.061 192.57 104.556 193.5 103.676 194.1C102.796 194.7 101.516 195 99.8355 195H97.3755C95.5055 195 94.1355 194.57 93.2655 193.71C92.3955 192.84 91.9605 191.475 91.9605 189.615V186.225C91.9605 184.335 92.3955 182.96 93.2655 182.1C94.1355 181.23 95.5055 180.805 97.3755 180.825H99.8355C101.706 180.825 103.071 181.26 103.931 182.13C104.801 182.99 105.236 184.355 105.236 186.225V187.725C105.236 188.255 104.976 188.52 104.456 188.52H93.5355ZM97.3755 182.4C95.9455 182.38 94.9455 182.655 94.3755 183.225C93.8155 183.785 93.5355 184.785 93.5355 186.225V186.945H103.661V186.225C103.661 184.795 103.381 183.8 102.821 183.24C102.261 182.68 101.266 182.4 99.8355 182.4H97.3755ZM115.407 194.97C113.617 194.97 112.287 194.575 111.417 193.785C110.557 192.985 110.097 191.73 110.037 190.02C110.027 189.78 110.092 189.59 110.232 189.45C110.382 189.3 110.577 189.225 110.817 189.225C111.057 189.225 111.247 189.295 111.387 189.435C111.527 189.575 111.607 189.765 111.627 190.005C111.667 191.265 111.967 192.145 112.527 192.645C113.087 193.145 114.047 193.395 115.407 193.395H119.727C121.147 193.395 122.132 193.12 122.682 192.57C123.242 192.01 123.522 191.03 123.522 189.63C123.522 188.21 123.242 187.225 122.682 186.675C122.132 186.115 121.147 185.835 119.727 185.835H115.617C113.857 185.835 112.567 185.425 111.747 184.605C110.927 183.785 110.517 182.5 110.517 180.75C110.517 179 110.922 177.715 111.732 176.895C112.552 176.075 113.837 175.665 115.587 175.665H119.787C121.467 175.665 122.712 176.04 123.522 176.79C124.342 177.54 124.782 178.72 124.842 180.33C124.862 180.57 124.797 180.765 124.647 180.915C124.507 181.055 124.312 181.125 124.062 181.125C123.832 181.125 123.647 181.055 123.507 180.915C123.367 180.775 123.287 180.585 123.267 180.345C123.227 179.195 122.947 178.39 122.427 177.93C121.907 177.47 121.027 177.24 119.787 177.24H115.587C114.277 177.24 113.367 177.5 112.857 178.02C112.347 178.53 112.092 179.44 112.092 180.75C112.092 182.06 112.347 182.975 112.857 183.495C113.377 184.005 114.297 184.26 115.617 184.26H119.727C121.587 184.26 122.947 184.695 123.807 185.565C124.667 186.425 125.097 187.78 125.097 189.63C125.097 191.48 124.667 192.835 123.807 193.695C122.947 194.545 121.587 194.97 119.727 194.97H115.407ZM145.785 195.12C145.945 195.29 146.025 195.46 146.025 195.63C146.025 195.81 145.935 195.985 145.755 196.155C145.405 196.495 145.055 196.495 144.705 196.155L140.7 192.015C140.53 191.845 140.445 191.675 140.445 191.505C140.445 191.325 140.53 191.15 140.7 190.98C141.05 190.64 141.405 190.64 141.765 190.98L145.785 195.12ZM136.155 195C133.985 195 132.4 194.5 131.4 193.5C130.4 192.5 129.9 190.915 129.9 188.745V181.905C129.9 179.715 130.4 178.125 131.4 177.135C132.4 176.135 133.975 175.645 136.125 175.665H139.755C141.925 175.665 143.505 176.165 144.495 177.165C145.495 178.165 145.995 179.75 145.995 181.92V188.745C145.995 190.915 145.495 192.5 144.495 193.5C143.505 194.5 141.925 195 139.755 195H136.155ZM136.155 193.425H139.755C140.905 193.425 141.82 193.275 142.5 192.975C143.18 192.675 143.67 192.185 143.97 191.505C144.27 190.825 144.42 189.905 144.42 188.745V181.92C144.42 180.77 144.27 179.855 143.97 179.175C143.67 178.495 143.18 178.005 142.5 177.705C141.82 177.395 140.905 177.24 139.755 177.24H136.125C134.975 177.23 134.06 177.375 133.38 177.675C132.71 177.965 132.225 178.455 131.925 179.145C131.625 179.825 131.475 180.745 131.475 181.905V188.745C131.475 189.905 131.625 190.825 131.925 191.505C132.225 192.185 132.715 192.675 133.395 192.975C134.075 193.275 134.995 193.425 136.155 193.425ZM152.047 195C151.517 195 151.252 194.735 151.252 194.205V176.46C151.252 175.93 151.517 175.665 152.047 175.665C152.567 175.665 152.827 175.93 152.827 176.46V193.425H161.947C162.477 193.425 162.742 193.685 162.742 194.205C162.742 194.735 162.477 195 161.947 195H152.047Z" fill="white"/>
<defs>
<clipPath id="clip0_26_395">
<rect width="89.2121" height="92" fill="white" transform="translate(36 29)"/>
</clipPath>
</defs>
</svg>
