<svg width="179" height="201" viewBox="0 0 179 201" fill="none" xmlns="http://www.w3.org/2000/svg">
<circle cx="90" cy="75" r="74" stroke="#F561E7" stroke-width="2"/>
<path d="M15.885 195.03C15.665 195.16 15.465 195.205 15.285 195.165C15.105 195.125 14.945 195 14.805 194.79L9.885 186.96H4.38V194.205C4.38 194.735 4.12 195 3.6 195C3.07 195 2.805 194.735 2.805 194.205V176.46C2.805 175.93 3.07 175.665 3.6 175.665H10.62C12.33 175.665 13.62 176.105 14.49 176.985C15.37 177.865 15.81 179.16 15.81 180.87V181.77C15.81 183.28 15.465 184.465 14.775 185.325C14.085 186.185 13.065 186.71 11.715 186.9L16.14 193.95C16.42 194.41 16.335 194.77 15.885 195.03ZM4.38 185.385H10.62C11.88 185.385 12.795 185.1 13.365 184.53C13.945 183.95 14.235 183.03 14.235 181.77V180.87C14.235 179.6 13.945 178.68 13.365 178.11C12.795 177.53 11.88 177.24 10.62 177.24H4.38V185.385ZM21.7582 188.52V189.615C21.7582 191.025 22.0382 192.015 22.5982 192.585C23.1682 193.145 24.1682 193.425 25.5982 193.425H28.0582C29.3182 193.425 30.2332 193.265 30.8032 192.945C31.3832 192.615 31.7282 192.05 31.8382 191.25C31.8782 191 31.9582 190.81 32.0782 190.68C32.2082 190.55 32.4032 190.485 32.6632 190.485C32.9232 190.485 33.1182 190.56 33.2482 190.71C33.3882 190.85 33.4432 191.05 33.4132 191.31C33.2832 192.57 32.7782 193.5 31.8982 194.1C31.0182 194.7 29.7382 195 28.0582 195H25.5982C23.7282 195 22.3582 194.57 21.4882 193.71C20.6182 192.84 20.1832 191.475 20.1832 189.615V186.225C20.1832 184.335 20.6182 182.96 21.4882 182.1C22.3582 181.23 23.7282 180.805 25.5982 180.825H28.0582C29.9282 180.825 31.2932 181.26 32.1532 182.13C33.0232 182.99 33.4582 184.355 33.4582 186.225V187.725C33.4582 188.255 33.1982 188.52 32.6782 188.52H21.7582ZM25.5982 182.4C24.1682 182.38 23.1682 182.655 22.5982 183.225C22.0382 183.785 21.7582 184.785 21.7582 186.225V186.945H31.8832V186.225C31.8832 184.795 31.6032 183.8 31.0432 183.24C30.4832 182.68 29.4882 182.4 28.0582 182.4H25.5982ZM42.8794 195C41.3194 195 40.1744 194.64 39.4444 193.92C38.7244 193.19 38.3644 192.045 38.3644 190.485C38.3644 188.925 38.7294 187.78 39.4594 187.05C40.1894 186.32 41.3294 185.955 42.8794 185.955H49.7044C49.6844 184.635 49.3844 183.715 48.8044 183.195C48.2344 182.665 47.2594 182.4 45.8794 182.4H44.1394C42.8694 182.4 41.9394 182.535 41.3494 182.805C40.7594 183.075 40.3944 183.535 40.2544 184.185C40.1844 184.435 40.0894 184.62 39.9694 184.74C39.8594 184.85 39.6794 184.905 39.4294 184.905C39.1694 184.905 38.9644 184.835 38.8144 184.695C38.6744 184.545 38.6244 184.345 38.6644 184.095C38.7944 182.955 39.3094 182.125 40.2094 181.605C41.1194 181.085 42.4294 180.825 44.1394 180.825H45.8794C47.7494 180.825 49.1144 181.26 49.9744 182.13C50.8444 182.99 51.2794 184.355 51.2794 186.225V194.205C51.2794 194.735 51.0194 195 50.4994 195C49.9694 195 49.7044 194.735 49.7044 194.205V192.72C48.7444 194.24 47.0294 195 44.5594 195H42.8794ZM42.8794 193.425H44.5594C45.5294 193.425 46.3794 193.32 47.1094 193.11C47.8494 192.89 48.4444 192.54 48.8944 192.06C49.3444 191.58 49.6144 190.94 49.7044 190.14V187.53H42.8794C41.7694 187.53 40.9994 187.745 40.5694 188.175C40.1494 188.595 39.9394 189.365 39.9394 190.485C39.9394 191.595 40.1494 192.365 40.5694 192.795C40.9994 193.215 41.7694 193.425 42.8794 193.425ZM61.6334 195C59.7634 195 58.3934 194.565 57.5234 193.695C56.6534 192.825 56.2184 191.455 56.2184 189.585V186.195C56.2184 184.325 56.6484 182.96 57.5084 182.1C58.3784 181.23 59.7534 180.805 61.6334 180.825H64.0934C65.5634 180.825 66.6834 181.075 67.4534 181.575C68.2334 182.065 68.6984 182.84 68.8484 183.9C68.8784 184.17 68.8184 184.375 68.6684 184.515C68.5284 184.655 68.3284 184.725 68.0684 184.725C67.8284 184.725 67.6484 184.665 67.5284 184.545C67.4084 184.415 67.3184 184.23 67.2584 183.99C67.1484 183.41 66.8534 183 66.3734 182.76C65.8934 182.52 65.1334 182.4 64.0934 182.4H61.6334C60.2034 182.38 59.2034 182.65 58.6334 183.21C58.0734 183.76 57.7934 184.755 57.7934 186.195V189.585C57.7934 191.015 58.0734 192.015 58.6334 192.585C59.2034 193.145 60.2034 193.425 61.6334 193.425H64.0934C65.1334 193.425 65.8934 193.305 66.3734 193.065C66.8534 192.825 67.1484 192.41 67.2584 191.82C67.3184 191.58 67.4084 191.4 67.5284 191.28C67.6484 191.15 67.8284 191.085 68.0684 191.085C68.3284 191.085 68.5284 191.16 68.6684 191.31C68.8184 191.45 68.8784 191.65 68.8484 191.91C68.6984 192.97 68.2334 193.75 67.4534 194.25C66.6834 194.75 65.5634 195 64.0934 195H61.6334ZM79.552 195C77.712 195 76.367 194.575 75.517 193.725C74.667 192.875 74.242 191.535 74.242 189.705V182.4H72.457C71.927 182.4 71.662 182.135 71.662 181.605C71.662 181.085 71.927 180.825 72.457 180.825H74.242V177.6C74.242 177.07 74.502 176.805 75.022 176.805C75.552 176.805 75.817 177.07 75.817 177.6V180.825H79.582C80.102 180.825 80.362 181.085 80.362 181.605C80.362 182.135 80.102 182.4 79.582 182.4H75.817V189.705C75.817 191.105 76.087 192.075 76.627 192.615C77.177 193.155 78.152 193.425 79.552 193.425C79.842 193.425 80.047 193.49 80.167 193.62C80.297 193.75 80.362 193.945 80.362 194.205C80.362 194.735 80.092 195 79.552 195ZM92.8383 195C92.3083 195 92.0433 194.735 92.0433 194.205V176.46C92.0433 175.93 92.3083 175.665 92.8383 175.665C93.1183 175.665 93.3883 175.82 93.6483 176.13L106.353 192.45H105.993V176.46C105.993 175.93 106.258 175.665 106.788 175.665C107.308 175.665 107.568 175.93 107.568 176.46V194.205C107.568 194.735 107.308 195 106.788 195C106.498 195 106.228 194.845 105.978 194.535L93.2583 178.215H93.6183V194.205C93.6183 194.735 93.3583 195 92.8383 195ZM117.381 195C115.821 195 114.676 194.64 113.946 193.92C113.226 193.19 112.866 192.045 112.866 190.485C112.866 188.925 113.231 187.78 113.961 187.05C114.691 186.32 115.831 185.955 117.381 185.955H124.206C124.186 184.635 123.886 183.715 123.306 183.195C122.736 182.665 121.761 182.4 120.381 182.4H118.641C117.371 182.4 116.441 182.535 115.851 182.805C115.261 183.075 114.896 183.535 114.756 184.185C114.686 184.435 114.591 184.62 114.471 184.74C114.361 184.85 114.181 184.905 113.931 184.905C113.671 184.905 113.466 184.835 113.316 184.695C113.176 184.545 113.126 184.345 113.166 184.095C113.296 182.955 113.811 182.125 114.711 181.605C115.621 181.085 116.931 180.825 118.641 180.825H120.381C122.251 180.825 123.616 181.26 124.476 182.13C125.346 182.99 125.781 184.355 125.781 186.225V194.205C125.781 194.735 125.521 195 125.001 195C124.471 195 124.206 194.735 124.206 194.205V192.72C123.246 194.24 121.531 195 119.061 195H117.381ZM117.381 193.425H119.061C120.031 193.425 120.881 193.32 121.611 193.11C122.351 192.89 122.946 192.54 123.396 192.06C123.846 191.58 124.116 190.94 124.206 190.14V187.53H117.381C116.271 187.53 115.501 187.745 115.071 188.175C114.651 188.595 114.441 189.365 114.441 190.485C114.441 191.595 114.651 192.365 115.071 192.795C115.501 193.215 116.271 193.425 117.381 193.425ZM136.915 195C135.075 195 133.73 194.575 132.88 193.725C132.03 192.875 131.605 191.535 131.605 189.705V182.4H129.82C129.29 182.4 129.025 182.135 129.025 181.605C129.025 181.085 129.29 180.825 129.82 180.825H131.605V177.6C131.605 177.07 131.865 176.805 132.385 176.805C132.915 176.805 133.18 177.07 133.18 177.6V180.825H136.945C137.465 180.825 137.725 181.085 137.725 181.605C137.725 182.135 137.465 182.4 136.945 182.4H133.18V189.705C133.18 191.105 133.45 192.075 133.99 192.615C134.54 193.155 135.515 193.425 136.915 193.425C137.205 193.425 137.41 193.49 137.53 193.62C137.66 193.75 137.725 193.945 137.725 194.205C137.725 194.735 137.455 195 136.915 195ZM142.327 178.095C141.637 178.095 141.292 177.74 141.292 177.03V176.355C141.292 175.665 141.637 175.32 142.327 175.32H143.002C143.672 175.32 144.007 175.665 144.007 176.355V177.03C144.007 177.74 143.672 178.095 143.002 178.095H142.327ZM142.672 195C142.142 195 141.877 194.735 141.877 194.205V181.605C141.877 181.085 142.142 180.825 142.672 180.825C143.192 180.825 143.452 181.085 143.452 181.605V194.205C143.452 194.735 143.192 195 142.672 195ZM154.5 194.4C154.39 194.64 154.255 194.8 154.095 194.88C153.935 194.96 153.75 195 153.54 195C153.1 195 152.79 194.795 152.61 194.385L147.045 181.92C146.835 181.43 146.98 181.09 147.48 180.9C147.95 180.7 148.29 180.84 148.5 181.32L154.05 193.74H153.09L159 181.305C159.11 181.075 159.255 180.925 159.435 180.855C159.615 180.785 159.82 180.8 160.05 180.9C160.54 181.12 160.675 181.47 160.455 181.95L154.5 194.4ZM164.668 188.52V189.615C164.668 191.025 164.948 192.015 165.508 192.585C166.078 193.145 167.078 193.425 168.508 193.425H170.968C172.228 193.425 173.143 193.265 173.713 192.945C174.293 192.615 174.638 192.05 174.748 191.25C174.788 191 174.868 190.81 174.988 190.68C175.118 190.55 175.313 190.485 175.573 190.485C175.833 190.485 176.028 190.56 176.158 190.71C176.298 190.85 176.353 191.05 176.323 191.31C176.193 192.57 175.688 193.5 174.808 194.1C173.928 194.7 172.648 195 170.968 195H168.508C166.638 195 165.268 194.57 164.398 193.71C163.528 192.84 163.093 191.475 163.093 189.615V186.225C163.093 184.335 163.528 182.96 164.398 182.1C165.268 181.23 166.638 180.805 168.508 180.825H170.968C172.838 180.825 174.203 181.26 175.063 182.13C175.933 182.99 176.368 184.355 176.368 186.225V187.725C176.368 188.255 176.108 188.52 175.588 188.52H164.668ZM168.508 182.4C167.078 182.38 166.078 182.655 165.508 183.225C164.948 183.785 164.668 184.785 164.668 186.225V186.945H174.793V186.225C174.793 184.795 174.513 183.8 173.953 183.24C173.393 182.68 172.398 182.4 170.968 182.4H168.508Z" fill="white"/>
<path d="M116.42 61.6466C115.57 61.3538 114.688 61.0768 113.781 60.8148C113.93 60.206 114.067 59.6051 114.189 59.0144C116.187 49.315 114.88 41.5011 110.419 38.9284C106.141 36.4616 99.1453 39.0337 92.0798 45.1826C91.4003 45.7739 90.719 46.3999 90.038 47.056C89.5842 46.6219 89.1311 46.2024 88.6792 45.8012C81.2743 39.2263 73.852 36.4556 69.3951 39.0357C65.1215 41.5097 63.8558 48.8555 65.6545 58.0477C65.8282 58.9356 66.0312 59.8423 66.2608 60.7642C65.2103 61.0624 64.1962 61.3803 63.2259 61.7184C54.5444 64.7452 49 69.4889 49 74.4093C49 79.4911 54.9519 84.5883 63.9944 87.679C64.708 87.9229 65.4484 88.1535 66.2115 88.3724C65.9638 89.3695 65.7483 90.3465 65.5675 91.2995C63.8525 100.332 65.1918 107.504 69.4541 109.963C73.8567 112.502 81.2454 109.892 88.4401 103.603C89.0088 103.106 89.5795 102.579 90.1512 102.026C90.8922 102.74 91.6321 103.415 92.368 104.048C99.337 110.045 106.22 112.467 110.478 110.002C114.877 107.456 116.306 99.7509 114.45 90.3769C114.308 89.661 114.144 88.9296 113.958 88.1852C114.477 88.0318 114.987 87.8734 115.483 87.7088C124.884 84.5941 131 79.559 131 74.4093C131 69.471 125.277 64.6954 116.42 61.6466ZM114.382 84.3837C113.933 84.5321 113.473 84.6756 113.004 84.8147C111.967 81.5293 110.566 78.0358 108.852 74.4264C110.488 70.9029 111.834 67.454 112.843 64.19C113.682 64.4327 114.496 64.6887 115.28 64.9589C122.868 67.5711 127.497 71.4333 127.497 74.4093C127.497 77.5792 122.498 81.6942 114.382 84.3837ZM111.014 91.0572C111.834 95.2023 111.951 98.9499 111.408 101.88C110.92 104.512 109.937 106.267 108.723 106.97C106.139 108.466 100.613 106.522 94.6526 101.393C93.9694 100.805 93.2812 100.177 92.5908 99.5129C94.9013 96.9859 97.2105 94.0482 99.4643 90.7856C103.428 90.4338 107.174 89.8587 110.57 89.0736C110.737 89.7484 110.886 90.4102 111.014 91.0572ZM76.9557 106.712C74.4309 107.603 72.42 107.629 71.2044 106.928C68.6179 105.436 67.5426 99.6775 69.0094 91.9528C69.1774 91.0681 69.3773 90.1594 69.6078 89.2305C72.9669 89.9733 76.6846 90.5078 80.6582 90.8299C82.9271 94.0225 85.303 96.957 87.6974 99.5265C87.1742 100.031 86.6532 100.512 86.135 100.965C82.9535 103.746 79.7654 105.719 76.9557 106.712ZM65.1273 84.3643C61.1289 82.9976 57.8269 81.2215 55.5635 79.2833C53.5297 77.5416 52.5029 75.8124 52.5029 74.4093C52.5029 71.4234 56.9545 67.6149 64.379 65.0263C65.2798 64.7122 66.2229 64.4162 67.2015 64.1381C68.2276 67.4759 69.5736 70.9657 71.198 74.4945C69.5526 78.0758 68.1875 81.6211 67.1513 84.998C66.4536 84.7975 65.7777 84.5864 65.1273 84.3643ZM69.0923 57.375C67.5512 49.4994 68.5747 43.5582 71.1501 42.0674C73.8934 40.4792 79.9596 42.7436 86.3532 48.4207C86.7619 48.7836 87.1722 49.1634 87.5837 49.5563C85.2012 52.1145 82.847 55.027 80.5982 58.2007C76.7417 58.5581 73.0501 59.1323 69.656 59.9013C69.4426 59.0429 69.2535 58.1995 69.0923 57.375ZM104.463 66.109C103.652 64.7075 102.819 63.3392 101.97 62.0082C104.586 62.3389 107.093 62.778 109.447 63.3152C108.74 65.5802 107.859 67.9484 106.822 70.3761C106.079 68.964 105.292 67.5402 104.463 66.109ZM90.0391 52.0598C91.6549 53.8102 93.273 55.7646 94.8645 57.8851C93.2607 57.8094 91.6371 57.77 90 57.77C88.3784 57.77 86.7667 57.8085 85.1728 57.8829C86.766 55.7822 88.3981 53.8304 90.0391 52.0598ZM75.5225 66.1333C74.712 67.5387 73.9399 68.9548 73.2077 70.3735C72.1876 67.9542 71.3149 65.5753 70.6021 63.2782C72.9416 62.7546 75.4365 62.3265 78.0362 62.002C77.175 63.3453 76.3352 64.7237 75.5225 66.133V66.1333ZM78.1111 87.0664C75.4251 86.7667 72.8927 86.3607 70.5538 85.8516C71.278 83.5135 72.17 81.0837 73.2117 78.6123C73.9457 80.03 74.7209 81.4467 75.5363 82.8552H75.5365C76.3671 84.2901 77.2277 85.6957 78.1111 87.0664ZM90.136 97.0058C88.4758 95.2144 86.8197 93.2329 85.2023 91.1014C86.7724 91.163 88.3731 91.1945 90 91.1945C91.6714 91.1945 93.3236 91.1569 94.9499 91.0845C93.3531 93.2543 91.7409 95.2389 90.136 97.0058ZM106.856 78.4863C107.952 80.9844 108.876 83.4015 109.609 85.6998C107.232 86.2422 104.665 86.679 101.96 87.0036C102.811 85.6547 103.652 84.2628 104.477 82.8311C105.313 81.3826 106.106 79.9319 106.856 78.4863ZM101.443 81.0811C100.161 83.3036 98.8453 85.4252 97.5093 87.4279C95.076 87.6019 92.5622 87.6915 90 87.6915C87.4482 87.6915 84.966 87.6123 82.5758 87.4571C81.186 85.4282 79.8414 83.3002 78.5678 81.1002H78.5681C77.2978 78.9061 76.1287 76.6935 75.0693 74.4933C76.1284 72.2881 77.2944 70.073 78.5574 67.8829L78.5571 67.8833C79.8235 65.6874 81.1562 63.5698 82.5332 61.5535C84.9719 61.3692 87.4726 61.273 89.9999 61.273H90C92.5387 61.273 95.0426 61.3699 97.4805 61.5558C98.8365 63.5574 100.16 65.6681 101.431 67.8643C102.717 70.0852 103.898 72.2856 104.966 74.4436C103.902 76.6387 102.723 78.8612 101.443 81.0811ZM108.669 41.9632C111.415 43.5467 112.483 49.933 110.758 58.3074C110.648 58.8417 110.524 59.386 110.389 59.9376C106.987 59.1526 103.293 58.5685 99.4253 58.2057C97.1721 54.997 94.8372 52.08 92.4936 49.5547C93.1237 48.9485 93.7529 48.3705 94.3795 47.8251C100.433 42.5567 106.091 40.4766 108.669 41.9632ZM90 67.087C94.0439 67.087 97.3223 70.3652 97.3223 74.4093C97.3223 78.4532 94.0439 81.7316 90 81.7316C85.9561 81.7316 82.6777 78.4532 82.6777 74.4093C82.6777 70.3652 85.9561 67.087 90 67.087Z" fill="#00D8FF"/>
</svg>
