<svg width="166" height="201" viewBox="0 0 166 201" fill="none" xmlns="http://www.w3.org/2000/svg">
<circle cx="83" cy="75" r="74.5" stroke="#F561E7"/>
<path d="M7.77 194.97C5.98 194.97 4.65 194.575 3.78 193.785C2.92 192.985 2.46 191.73 2.4 190.02C2.39 189.78 2.455 189.59 2.595 189.45C2.745 189.3 2.94 189.225 3.18 189.225C3.42 189.225 3.61 189.295 3.75 189.435C3.89 189.575 3.97 189.765 3.99 190.005C4.03 191.265 4.33 192.145 4.89 192.645C5.45 193.145 6.41 193.395 7.77 193.395H12.09C13.51 193.395 14.495 193.12 15.045 192.57C15.605 192.01 15.885 191.03 15.885 189.63C15.885 188.21 15.605 187.225 15.045 186.675C14.495 186.115 13.51 185.835 12.09 185.835H7.98C6.22 185.835 4.93 185.425 4.11 184.605C3.29 183.785 2.88 182.5 2.88 180.75C2.88 179 3.285 177.715 4.095 176.895C4.915 176.075 6.2 175.665 7.95 175.665H12.15C13.83 175.665 15.075 176.04 15.885 176.79C16.705 177.54 17.145 178.72 17.205 180.33C17.225 180.57 17.16 180.765 17.01 180.915C16.87 181.055 16.675 181.125 16.425 181.125C16.195 181.125 16.01 181.055 15.87 180.915C15.73 180.775 15.65 180.585 15.63 180.345C15.59 179.195 15.31 178.39 14.79 177.93C14.27 177.47 13.39 177.24 12.15 177.24H7.95C6.64 177.24 5.73 177.5 5.22 178.02C4.71 178.53 4.455 179.44 4.455 180.75C4.455 182.06 4.71 182.975 5.22 183.495C5.74 184.005 6.66 184.26 7.98 184.26H12.09C13.95 184.26 15.31 184.695 16.17 185.565C17.03 186.425 17.46 187.78 17.46 189.63C17.46 191.48 17.03 192.835 16.17 193.695C15.31 194.545 13.95 194.97 12.09 194.97H7.77ZM23.4633 201C22.9333 201 22.6683 200.735 22.6683 200.205V181.605C22.6683 181.085 22.9333 180.825 23.4633 180.825C23.9833 180.825 24.2433 181.085 24.2433 181.605V182.94C24.6933 182.24 25.3383 181.715 26.1783 181.365C27.0183 181.005 28.0933 180.825 29.4033 180.825H30.5433C32.4133 180.825 33.7783 181.26 34.6383 182.13C35.5083 182.99 35.9433 184.355 35.9433 186.225V189.585C35.9433 191.455 35.5083 192.825 34.6383 193.695C33.7783 194.565 32.4133 195 30.5433 195H24.2433V200.205C24.2433 200.735 23.9833 201 23.4633 201ZM24.2433 193.425H30.5433C31.9733 193.425 32.9683 193.145 33.5283 192.585C34.0883 192.015 34.3683 191.015 34.3683 189.585V186.225C34.3683 184.795 34.0883 183.8 33.5283 183.24C32.9683 182.68 31.9733 182.4 30.5433 182.4H29.4033C27.8033 182.4 26.5733 182.65 25.7133 183.15C24.8633 183.65 24.3733 184.42 24.2433 185.46V193.425ZM41.9496 195C41.4196 195 41.1546 194.735 41.1546 194.205V181.605C41.1546 181.085 41.4196 180.825 41.9496 180.825C42.4696 180.825 42.7296 181.085 42.7296 181.605V183.915C43.2496 182.915 43.9996 182.15 44.9796 181.62C45.9696 181.09 47.1396 180.825 48.4896 180.825C49.0196 180.825 49.2846 181.085 49.2846 181.605C49.2846 182.135 49.0196 182.4 48.4896 182.4C46.7096 182.4 45.3296 182.805 44.3496 183.615C43.3696 184.415 42.8296 185.56 42.7296 187.05V194.205C42.7296 194.735 42.4696 195 41.9496 195ZM52.9132 178.095C52.2232 178.095 51.8782 177.74 51.8782 177.03V176.355C51.8782 175.665 52.2232 175.32 52.9132 175.32H53.5882C54.2582 175.32 54.5932 175.665 54.5932 176.355V177.03C54.5932 177.74 54.2582 178.095 53.5882 178.095H52.9132ZM53.2582 195C52.7282 195 52.4632 194.735 52.4632 194.205V181.605C52.4632 181.085 52.7282 180.825 53.2582 180.825C53.7782 180.825 54.0382 181.085 54.0382 181.605V194.205C54.0382 194.735 53.7782 195 53.2582 195ZM60.4359 195C59.9059 195 59.6409 194.735 59.6409 194.205V181.605C59.6409 181.085 59.9059 180.825 60.4359 180.825C60.9559 180.825 61.2159 181.085 61.2159 181.605V183.045C62.1659 181.565 63.8859 180.825 66.3759 180.825H67.2159C69.0859 180.825 70.4509 181.26 71.3109 182.13C72.1809 182.99 72.6159 184.355 72.6159 186.225V194.205C72.6159 194.735 72.3559 195 71.8359 195C71.3059 195 71.0409 194.735 71.0409 194.205V186.225C71.0409 184.795 70.7559 183.8 70.1859 183.24C69.6259 182.68 68.6359 182.4 67.2159 182.4H66.3759C64.8259 182.4 63.6059 182.645 62.7159 183.135C61.8259 183.625 61.3259 184.39 61.2159 185.43V194.205C61.2159 194.735 60.9559 195 60.4359 195ZM81.4015 201C80.2215 201 79.3215 200.755 78.7015 200.265C78.0815 199.785 77.7165 199.025 77.6065 197.985C77.5765 197.725 77.6315 197.52 77.7715 197.37C77.9115 197.22 78.1065 197.145 78.3565 197.145C78.6065 197.145 78.7965 197.21 78.9265 197.34C79.0565 197.47 79.1415 197.665 79.1815 197.925C79.2515 198.505 79.4565 198.9 79.7965 199.11C80.1365 199.32 80.6715 199.425 81.4015 199.425H86.9815C87.8615 199.425 88.4565 199.265 88.7665 198.945C89.0865 198.625 89.2465 198.025 89.2465 197.145V192.855C88.7865 193.555 88.1365 194.09 87.2965 194.46C86.4565 194.82 85.3915 195 84.1015 195H82.9615C81.0915 195 79.7215 194.57 78.8515 193.71C77.9815 192.84 77.5465 191.475 77.5465 189.615V186.225C77.5465 184.335 77.9765 182.965 78.8365 182.115C79.7065 181.255 81.0815 180.825 82.9615 180.825H85.4215C86.4015 180.825 87.1965 180.955 87.8065 181.215C88.4165 181.475 88.8965 181.88 89.2465 182.43V181.605C89.2465 181.085 89.5115 180.825 90.0415 180.825C90.5615 180.825 90.8215 181.085 90.8215 181.605V197.145C90.8215 198.465 90.5115 199.435 89.8915 200.055C89.2715 200.685 88.3015 201 86.9815 201H81.4015ZM82.9615 193.425H84.1015C85.6615 193.425 86.9065 193.18 87.8365 192.69C88.7765 192.2 89.2465 191.455 89.2465 190.455V185.445C89.2465 184.315 88.9315 183.525 88.3015 183.075C87.6715 182.625 86.7115 182.4 85.4215 182.4H82.9615C81.5315 182.4 80.5315 182.68 79.9615 183.24C79.4015 183.79 79.1215 184.785 79.1215 186.225V189.615C79.1215 191.025 79.4015 192.015 79.9615 192.585C80.5315 193.145 81.5315 193.425 82.9615 193.425ZM104.498 195C103.968 195 103.703 194.735 103.703 194.205V176.46C103.703 175.93 103.968 175.665 104.498 175.665H112.328C113.798 175.665 114.908 176.04 115.658 176.79C116.418 177.53 116.798 178.62 116.798 180.06V180.87C116.798 182.44 116.293 183.55 115.283 184.2C117.033 184.92 117.908 186.48 117.908 188.88V189.825C117.908 191.525 117.468 192.815 116.588 193.695C115.718 194.565 114.428 195 112.718 195H104.498ZM105.278 193.425H112.718C113.988 193.425 114.908 193.14 115.478 192.57C116.048 192 116.333 191.085 116.333 189.825V188.88C116.333 187.62 116.048 186.71 115.478 186.15C114.918 185.59 113.998 185.31 112.718 185.31H105.278V193.425ZM105.278 183.735H112.553C113.463 183.735 114.133 183.505 114.563 183.045C115.003 182.575 115.223 181.85 115.223 180.87V180.06C115.223 179.06 114.993 178.34 114.533 177.9C114.083 177.46 113.348 177.24 112.328 177.24H105.278V183.735ZM127.317 195C125.447 195 124.077 194.57 123.207 193.71C122.337 192.84 121.902 191.475 121.902 189.615V186.225C121.902 184.335 122.337 182.96 123.207 182.1C124.077 181.23 125.447 180.805 127.317 180.825H129.777C131.647 180.825 133.012 181.26 133.872 182.13C134.742 182.99 135.177 184.355 135.177 186.225V189.585C135.177 191.455 134.742 192.825 133.872 193.695C133.012 194.565 131.647 195 129.777 195H127.317ZM123.477 189.615C123.477 191.025 123.757 192.015 124.317 192.585C124.887 193.145 125.887 193.425 127.317 193.425H129.777C131.207 193.425 132.202 193.145 132.762 192.585C133.322 192.015 133.602 191.015 133.602 189.585V186.225C133.602 184.795 133.322 183.8 132.762 183.24C132.202 182.68 131.207 182.4 129.777 182.4H127.317C126.357 182.39 125.597 182.505 125.037 182.745C124.477 182.985 124.077 183.385 123.837 183.945C123.597 184.505 123.477 185.265 123.477 186.225V189.615ZM145.393 195C143.523 195 142.153 194.57 141.283 193.71C140.413 192.84 139.978 191.475 139.978 189.615V186.225C139.978 184.335 140.413 182.96 141.283 182.1C142.153 181.23 143.523 180.805 145.393 180.825H147.853C149.723 180.825 151.088 181.26 151.948 182.13C152.818 182.99 153.253 184.355 153.253 186.225V189.585C153.253 191.455 152.818 192.825 151.948 193.695C151.088 194.565 149.723 195 147.853 195H145.393ZM141.553 189.615C141.553 191.025 141.833 192.015 142.393 192.585C142.963 193.145 143.963 193.425 145.393 193.425H147.853C149.283 193.425 150.278 193.145 150.838 192.585C151.398 192.015 151.678 191.015 151.678 189.585V186.225C151.678 184.795 151.398 183.8 150.838 183.24C150.278 182.68 149.283 182.4 147.853 182.4H145.393C144.433 182.39 143.673 182.505 143.113 182.745C142.553 182.985 142.153 183.385 141.913 183.945C141.673 184.505 141.553 185.265 141.553 186.225V189.615ZM163.663 195C161.823 195 160.478 194.575 159.628 193.725C158.778 192.875 158.353 191.535 158.353 189.705V182.4H156.568C156.038 182.4 155.773 182.135 155.773 181.605C155.773 181.085 156.038 180.825 156.568 180.825H158.353V177.6C158.353 177.07 158.613 176.805 159.133 176.805C159.663 176.805 159.928 177.07 159.928 177.6V180.825H163.693C164.213 180.825 164.473 181.085 164.473 181.605C164.473 182.135 164.213 182.4 163.693 182.4H159.928V189.705C159.928 191.105 160.198 192.075 160.738 192.615C161.288 193.155 162.263 193.425 163.663 193.425C163.953 193.425 164.158 193.49 164.278 193.62C164.408 193.75 164.473 193.945 164.473 194.205C164.473 194.735 164.203 195 163.663 195Z" fill="white"/>
<g clip-path="url(#clip0_26_379)">
<path d="M55.4742 43.4925C71.6755 27.7975 97.5807 28.2194 113.276 44.5051C115.048 42.1424 116.567 39.5266 117.664 36.8263C122.811 52.5213 125.933 65.6849 124.752 75.8951C124.161 84.502 120.786 92.7714 115.216 99.3532C100.703 116.567 74.882 118.761 57.6681 104.247L57.3388 103.954L57.3213 103.943C57.2674 103.905 57.2142 103.866 57.1618 103.825C57.0047 103.703 56.862 103.57 56.7338 103.428L56.6876 103.376L56.1492 102.897C55.6242 102.447 55.0992 101.997 54.6334 101.488L54.4616 101.294C38.7666 85.0927 39.2729 59.1875 55.4742 43.4925ZM61.5497 98.425C60.0308 97.2437 57.8369 97.4124 56.6555 98.9313C55.6168 100.267 55.6219 102.124 56.6709 103.356L56.6876 103.376L57.3388 103.954L57.4027 103.998C58.8776 104.968 60.862 104.767 61.994 103.396L62.056 103.319C63.2373 101.8 62.9842 99.6063 61.5497 98.425ZM117.242 41.0454C113.023 49.9055 102.559 56.656 93.5303 58.7656C85.0078 60.7907 77.5822 59.1031 69.7347 62.1409C51.8458 68.9758 52.1833 90.24 61.9716 95.0497L62.5622 95.3872C62.5622 95.3872 69.6326 93.9815 76.6244 92.125L77.2233 91.9648C80.0159 91.2122 82.7632 90.3919 85.0078 89.5649C96.6525 85.2614 109.478 74.6293 113.698 62.3096C111.504 75.1356 100.45 87.5398 89.3956 93.1933C83.4889 96.2311 78.9323 96.9061 69.2284 100.281C68.0471 100.703 67.1189 101.125 67.1189 101.125C67.2373 101.109 67.3557 101.093 67.4738 101.077L67.7096 101.047L67.9442 101.017C70.0873 100.752 72.013 100.619 72.013 100.619C85.7672 99.9439 107.369 104.5 117.41 91.0838C127.705 77.4139 121.967 55.3059 117.242 41.0454Z" fill="#6DB33F"/>
<path d="M61.5497 98.425C62.9841 99.6063 63.2373 101.8 62.056 103.319C60.8746 104.838 58.6807 105.007 57.1618 103.825C55.6429 102.644 55.4742 100.45 56.6555 98.9313C57.8369 97.4124 60.0308 97.2436 61.5497 98.425ZM117.242 41.0454C121.967 55.3059 127.705 77.4139 117.41 91.0838C107.369 104.5 85.7672 99.9439 72.013 100.619C72.013 100.619 70.0873 100.752 67.9442 101.017L67.7096 101.047C67.5135 101.072 67.3162 101.098 67.1189 101.125C67.1189 101.125 68.0471 100.703 69.2284 100.281C78.9323 96.9061 83.4889 96.2311 89.3956 93.1933C100.45 87.5397 111.504 75.1356 113.698 62.3096C109.478 74.6293 96.6525 85.2614 85.0078 89.5649C76.9915 92.5183 62.5622 95.3872 62.5622 95.3872L61.9716 95.0497C52.1833 90.24 51.8458 68.9758 69.7347 62.1408C77.5822 59.1031 85.0078 60.7907 93.5303 58.7656C102.559 56.656 113.023 49.9055 117.242 41.0454Z" fill="white"/>
</g>
<defs>
<clipPath id="clip0_26_379">
<rect width="82" height="82" fill="white" transform="translate(43 32)"/>
</clipPath>
</defs>
</svg>
